<mxfile host="65bd71144e">
    <diagram id="MRjUx5YdLRlL5TZj2ZsZ" name="Page-1">
        <mxGraphModel dx="1139" dy="576" grid="1" gridSize="10" guides="1" tooltips="1" connect="1" arrows="1" fold="1" page="1" pageScale="1" pageWidth="850" pageHeight="1100" math="0" shadow="0">
            <root>
                <mxCell id="0"/>
                <mxCell id="1" parent="0"/>
                <mxCell id="3" value="" style="shape=image;verticalLabelPosition=bottom;labelBackgroundColor=default;verticalAlign=top;aspect=fixed;imageAspect=0;image=data:image/png,iVBORw0KGgoAAAANSUhEUgAAAfAAAAFACAYAAABDZi6TAAAAAXNSR0IArs4c6QAAAARnQU1BAACxjwv8YQUAAAAJcEhZcwAAEnQAABJ0Ad5mH3gAAMOaSURBVHhe7d0HmG1FmS/8pXPvd2funcExEiRIECQoICCgZAVESYoCSlAQVJKgIFFEwICSEZAsIEgUkCSigGQQUESRnJSgqKjjOOnO3P2tX3neM8Vyd+/Qu7v37lP/56lnpVoV33pT1ar1klaNqqCgIMFwiBC47LLLqvPPP7+66KKLqv/3//5f9dKXvnTWk7+gGb8T/uu//qv6n//zf1b/9m//Vv3t3/5tStP7ju3wN3/zNynu//7f/7v693//95S/8JKXvGRWjO6Rl/3//t//W/3nf/5ndfjhh1enn3569cgjj1T/3//3//VUlxz9lGcQiD7505/+VD366KPVY489lur1mte8prrjjjuqD3/4w9Wf//znauedd65OO+20asEFF5z15vRgutqpYObhxZyoYEwEk+6XuRWMDpoM9sgjj6z22GOPJHibwrsf5MKbEB1PeIM4hPe//Mu/pHcJ9H6FgDpE+B//439Uf/d3f5fKMddccyWhpyyOeVC2PDSfR4h0I14+ZiY7EN5///d/X73uda+rbrjhhuoDH/hAtd9++1UbbLBBNe+881avf/3rqyWWWKI6+uijZ7VE/ygCuGBYUAR4A8EQcrgOxtWOMRXMHGDOgr6G++67L1mlyy+//GxLWJ///ve/T8LqX//1X6vf/e531c9//vPqJz/5SRLwYSWHUPvjH/+YrqX7z//8zyldQjMEMpoC595xjGvvw/e+970UL65zEPDyfvjhh2crBMrwH//xHynfyN997zuXVggiz+UrvvfUUd7KJ70mCH5xHKUTddU+jr/5zW+qb33rWylutKcQeRC22iyeK5ejtom48UzwTpwL3/3ud1O7O5e/fANPPvlk9drXvrbaaaedqnXXXbe69NJLUxx5HHHEEdWNN95Y/eEPf0hlcWSZg3q6J57gnUDci/whzvsJBQWDwt98rsas84IaBhiGFq7N55577kWDDwPMGQaUQTnzQCjp5+OOO676X//rf1UbbrhhElgY+Te/+c3q7rvvrk4++eRkuf6f//N/qtVWW636+te/Xj3wwAPV/PPPX91///3VbrvtlgQ9a5CwIGDPOuus6h3veEcSGAceeGB14YUXVu9617uSkgBcvIQOgS3vjTfeuDrooINSWoTT448/Xr3tbW9LcQPKsummmyahyQ3+hje8IZVdXl/84herK6+8snr3u9+d6nHbbbdVp556anXddddVP/3pT5NiQvjfcsst1f7771/98Ic/rHbcccfqiiuuqFZYYYUkDCEfAzEOtIeyml646aabkjAUX/mUhVLzile8IikF2o/Qxm54Ewjxj3zkI9X666+fLOeTTjqp+vKXv1xtueWWKR1l5da/6qqrqhNPPLE6++yzq3XWWac64YQTknC+8847k7t89dVXT2URX5/JQ3vK433ve1+1zDLLpD6KMktzzTXXrF72spelfI3zGO/ep7REWnl9AT+QRn6voGA6USzwNviHf/iHdDR/9oUvfKH6p3/6p9mavgFcMLOhr/U5PPjgg0lA63v3n3jiieqwww6rttpqq+qjH/1oogdCC0P/0Ic+VH3605+uVl111eof//Efqx/84AdJUHHlEhqLLrpoEkQsSq5rLt1LLrlktpW77777JgFN6Ep7ueWWS3kvvPDCSah87GMfS3k0QRixeikKX/3qV9PcL8G82GKLJSWAMCaslYVw3myzzVIdKBcEl7QJTYLs9ttvT0LMvPhSSy01K4cXg0D2DiucYrH77rtX73nPe1Kd1WvuueeuXv3qV1d77bVXtdJKK6W2IWyffvrpJKBf/vKXVwsssEAS+toU1OGaa65JaWvTQw89NClBe++9d6rDGmuskdKUr/aj1GyxxRbpfcqP95Sb8kSx0N7y8U4TvCrKqVzG+FFHHZXa48wzz0z1V07tySMQHg1x0QDPBOFeUDAMKJRYI5hIwKDFwA3mr33ta4kxGMQGbjsBHi62CIPCINMq6B76mTBCF0899VQSvKG8eUaIH3vssdUqq6ySrGnMnSBcfPHFk1AG1qv3N9poo+oTn/hEcucSLgQQEJiLLLJIcgUTOCx01iWr1D1C8POf/3zKjxXJWiSUX/nKV6b3cxC0Fma9+c1vTmUkWL273nrrVQsttFC19NJLJ8ucJUrYEc7om2IBhJn0WcwsWNbtq171qlSvdlBXAtPx+eefT23xpje9KeWPZikcykSRkLbjb3/72+qd73xnUkCUSzlZyeAd1rU2NvaUnwXPQ6H+hDBBDuazvUdJ0p7huXBPO7p2VHbtH+2dw3iWrqAczz77bFr4du211yZlYZdddkmKGEXK9TnnnJM8E/qloGCYMKMFuMFpsDqCAU17B0wCXMdzcQ1SjAmzYwVhLphazEuyiCIdwbk4eYBIE0MKCyvgnbgnPmYY7+VxxVMmkF6UOeJ6zqoC70XdQBzviFPQHwhZluILL7yQBB4aIHRPOeWU5ApmXRIW+k/49a9/neLopxD4aIkwYd0SYtL0DoHpXHzhmWeeSWlwfxN6AWkQktIhnJq0JG3vKZ+46IHw33zzzat77rknuctZ3+jWc1YmlzoF5fvf/35KgyBTdu+wio0B8UHaTQTNecZ9TtAtu+yyqU7qrl6sV2Mo4oIyqpt6EL5oU77yVw/3BRYwZUIZoz1BfHQtLlrnKdM36iVocwJbPOfiCua23VMuzwX3gLtfG3HhmwK5+OKL09cGFi5uv/321dvf/vZURovfCPavfOUryQ0f6w1A+ZRHuylHjM+CgsnGjBPgBk8utAxkg8t9DCcGrkGXxyMoxcVAMB/uxRjwrJ4YlAZtMApxpRGDNkLOQDDruAfSFjCmKBcGjSk5l34IY2WVTgiEiOPonvNQKIJJuQfKHsK/oDdoeyAgWJLmtUOocnG/973vTfPRP/7xj9MnStqcsNLXEDSkz/QDwcVFLJ4+ck//uacvxWO16nfCFUL4hVDTl46RRw60KD1WM6EnH3PDFntxWcuTFYtO0QtFQrkJqFjIxV1P4D/00EPJi6AN5M+V3IQyELq//OUvq7e+9a0pDZ6Kz372syl9tGisKVcIdZB/QN3lQdnQBqxgbeZcPVjUXOrqoh+8a8w4aosYx/LoBGWRl3Gs7lakS0u7KFuMJf2gbp6JawpCu5gKILR5NawlgD333LP61Kc+VZ177rmzx690HKUlFBRMNmacAI8BBBgTJmth0C9+8YtkBRmcgGFwhWKKYQF4L1xlGA9mYfCzCJwbqJgWhg4xaL2fA7NwHzPkhsfAxcUMzalLHyORNyYZZbrrrrvSMwwxmAEGxQPgvusQLuomPospLBvu/m9/+9vVr371q5Smd71T0B/0OTez+VsKHdx6662JoXNNm3PG5AlbljNXsv7W/mgL0ABaIpxibYX5VvOwPnfSz6w+eZnTtWjNJ2sXXnhhsvR/9rOfzRY8LETWdBMEGguda1y6rFdHC8hYj55dfvnlSTngoqcomLPmTSCwLGIjvNGQc+XnokZXBGwT4VWQJutVvSziQ28EKze3cYc20byyEI7Gn/rK3/sEqIVrN998c3JfuyYQta2pCQqGue5jjjkmWcTawNSEuW2eBF6L3FsxFkK5Mo0A+gqMd3nmgtu5snmmnMY/qJu20N/akJW+zz77pLbyfbnyUeqMT+9GKCiYTMzYVegGksFonhKjYSH4RhSzMdhYJzTo+eabL80RWsnLgjCIt9lmm/T9qLnPgw8+OA1QjGKeeeZJq4MxEXOO4hr4TWBiGNF3vvOdxEzvvffeau2116522GGHNJ9mJTCFApPCFJQFsyPc5WnBjvlOc6oWQpkfxGgc5Yexx0poc3TqhblheBi+/DBn7t8iwHsHhUwfYsDO9YH2ZyUTThQnAscKahauNuZOJ7QwdFap/hSX4qVPWcDoxzkhTzCsvPLKyQXMymf1WlxG6PrUSf6mcNAHgaYsBD5BGSvDIfqXxY3mlNEcMzq5/vrrE/1TDKzmlh5lwlw7hYTbmGCitLJKvaOesRiNckmQNwVRtAvrVFmNr7XWWmv2hinKgu4pvmj56quvTha3OhGm6NI5t7t3KQQrrrhiGrPqqp022WSTdPScgiJtY9V8unJZRa/9WOvG+XhQVnEstqMgWeDmnrbLhXYgzsUR4lyfKas+1QYUcH2t34w/XyVQ7vEGSkYgT7ugYJCYkTuxYUIYhIGDgWBOZ599dtL+rR7GYD74wQ8m68EcHoF3yCGHpBWphK4FLVx4mAWXoOcsJFo/4e98PMgbo5UHbZ2gJXxZVZQG1lkwB3NwmPt5552XGAmmgGljrly1ugeD33rrrdNnPpgE4Y1xqh+PAAsNk8MQ4zOlgv4QwyEfFiwreq5FVQSw/s3RHELRt8G4B8nA0bYQQgstOpdfE/0ObQKKMP/Rj36UhK/0pSXfyM+5VfOOlOKx6ug9IcoXY0f8SDOeuddPW3WqJ0uaEsbTYZU+pQWiDL2i+Y5r9eKh46HBJ97//vcn5Q4f0Z4UIgpA5F1QMAj89aifgWCVEN5cgla3GliEs0HNUsWQWFOE4lve8pb0jLYfc9UsFp/wWMAinU4wSCkKhDWGQXizLmjv7RhGzG2OxbwwB++CuTjzbywdDIGmLz+WiHv9MKSC8UHB4i7nDte+aGK8gJ5CGPUjkMYDYScPdCg4bwpvZZwIHRA6aJLVbOwYD6x+ygtl8o1vfGPyDqkn4S0vgljIEeVQPkJM8A6g6RDe2iiOkwFji8eLEpYrXxNpoxzKrV48LqYmfBvPXW/lvCkMz4xVbVpQMEjMEQLc3JtBxFLlfiO4ucW5OzFBGjp3INeoOUYuRMwGI8NouMy5Pbm/Q5B2gnlMc+/c8s6DmbV7n3ZucCtjxAvmkh8pAYQINzmh7R0u0QAFBbMqmDhC+AqEFBexgC5CWLUTWhDvTRZ4W9Cm4LxTefrFkksumZRdG6eY/nHOtc265BEKq9L4MU7QaLMs7oUFKkT7EdhodRCCO9p7rAA+YevG3d4vIi/pqxNlwdScNsNjjFfPjdGCgkFhjhDgBg6mYXCxIMwVsqqtKMVUMCBz2wYchmQOyyIVg861eUBzbp/85CfT/HMnWHRmBa35NgvLuCFjAFs814Rn4DmGFwEcuXAt2CGwpWne233lNpdpZTQGSvEwF1cwWKAddELgmFJBR3nQb3mYbFAC0aXgfND5qy/aghC6lEeCyTU4R8tBu95BgyxcRwGURxzvC85DcE8VeNLMu0c/TibUNyxt37yzwk2lGZfaFP0UFAwKM3IRm0GEsWJw5qWs+jV4LRSygIxwtUDGTk8W95gjv+CCC5KQxGRY2+abzWd5zk1pBysudt+DEp4WpckHo8KQ4uiZNHbdddfknrcCNxYWYVrm3KVpkLMILJLjCTBXz0NAW+cFsDsU95vVwRYZ8SJw77N8WPbm7FnidvJy37v+mmWuX1kshuIClecgmPqcAm3VbK8QNvq3XVvGO1MZlCXKMxnB+Amgf3m5lwvemPuOsoRCEyFoL9IT4nqQoRPC66Ue0C6NXkKnNEBd5WfVOqFtgWps4RrAK8R3zBFpFBR0woxcxEbTJby5lwk+n8b4NIvFbXBY9S2OFaQWrhHsGBBhy4o10MDnQwSqtLjYzaNRBHwa4xqDIojDRcg9ZrCKQwhTCMylW1lLWHN3Esjy2XbbbdO1lctgjtGOW/Lj5rfKmVD2vvQxIfOOjuqkDqwdbt3YylP+FBFzlMoXjKugd+TDojDU4UYnFjbo/uuVZYrPE8dwsJAV3zCmCfl8CixQ6K2gW8zo/4ET0oQcIUsoEs6sY9eqTdAaRODawDGwokm8SyB7Jyxs93weY4W4gUgwcyUSxj6RcbSPsx8pEMYGKE1cWaQbloi8vS9t6Urfu6Ghe+4dz5xLgxLiWprKqR5h5bhWNvOiUVfvh9VRUFAwGPTKMmMPAELc4jbeMzzAdILx20yvCPCCbjGjBTihGIJOgLGEmriEqUHlPOKEwAf3CUfWNmGq6cxBW6UrvriOhLB8WMQEaa4oRNrSMahZ99IJaznKF4LdAA+oi8Ed+QQDyOEZQe65+IR9M05BQUH/6IZlNuPEGLRXg+/yfcoa6wua8/JFgBd0i6ES4IpC2MFEiNhgMTCkl7uRYxC5L31Hwf0QnCHwCVoCNMrk6Np7rj3P0/IshL1rQjTek34uwEFe8hRPfME9cB75e+5cWq7jfXGkG/kGCPUonzzFcS30i1wRoHDIo6Cg4K9hvAs5jBvj0dEeEwcccED6HNTYDeMgh7Gdo3ldUBAYGgFOwCDwQSCEl6o1hRuh6b7n4jmXNy3Y3LIBNZ4AV0bnAjiGMA0lIO6H4AxBCq7BtXPveF+IdyHSdQxlwHPn4FmkK41ApCF+5AlR3n6gDUN5cN5u3q6goOC/BXg+3ozZUHqNIQtk7dznm3EwlnN0ui4oCAxGYk4QiN08Ebc0AZEPgn4C4dXufuQlNOOM9axdPAOKcBQI0RhgzmciQnirXxHeBQWdgScEXyC8ea4EY8i39HaBdF1QMBFMiwXezNJq7fgbEWInLCYCAid2Jctd6M5Zq4SygSQfcZy7z/L2nmPE8TyCa4PSMwHcd88zyod3XUs74nkW1nC8p4w083YWeOThPemMZ4FHvgHtF/mGkuFcOfuF94HwtjLejlwFBQV/jeAVAefGj/FuzBrvxqxdGv0n3m9VPcshXo7mdUFBYEoFeDOruPYNtB9yEH6ERO4S7hWIXciFGCFIsMkvL0PEMaAMosg3Boz7EUca4kgvT0dc554rfzyLd5x7R1rgHhDG8iOQo8ydBLj8431xpOteU4C7Fj/yjTJ2A+9BHt/70rVTnX8i+xa9oKCgPYIHGDcQx4DxecYZZ6RxbZc7yOM04zevCwoC0yLAm0e/FLRrkc1VCJ0QIv0AsQvSCCEWwhXy6kYcQi7iQQwY98QXx7NOAjwEcP6Oc++MggAXL45xHvC+3etsTGFbyoKCgvYwVoR24yhw5513pg2ZTjzxxDRO83jNd8ZKo6BgWufAg8DtlharnLnRHScSpOkYgjmEJ0SezTjgmAdoFy/uCfnzQPOdOMZ5xM3v5yHeh/x+M77rvCwCRLyx0h8rSAvjoTBQAiKYq3PPIj/buhYUFIwPY0kYC/4caEOo+M98QUE/+AvHn2YQ2qGx2oiE9TiRIC1H1mocA6EdN+OAYx6gXby4J+TPA8134hjnETe/n4d4H/L7zfiu87IIEPHGSn+sIC19QPCz7HkE8uCbdn/mKigo6B/GGo+gf/5TjAsK+sWUCvDQSiMELC6z4xkB0s4y7DVI2zEsUMJH2pDn77ln4oDr3GqFSEs858104pzAC7iWjkHKpR3vRjzX4OjzNfUXL/KN9yHSifecR4g8vRtB+SKe59ICx0g/6pmHyDcPAc/AAj9WeEFBwdhojp8mPDOO/GDl4YcfflHc8d4rKGhiKCxwCMFYMNwoDKagYGJgdTNYTE3ZkbGgoF9MqwAnDJra5yAF+USEjXIMk1IRVjB0U69o2zxMBNoiL0NBQUF/MI54x3jJ/IkwMNExWjDnoVjgHRDlGq98MfDMbc1E5HUvQnzqMVPpak6FKSs/OvIvBAvZCgr6xZRyY4IgFwZxTQDm98Ni7CcE4rzds05olpHLyzEWerm28A4iXc98FjaWSyzK4H3BArNYhNYOES+ex7uRX6QX14F29wLdPBvrecH0IWgg9vdvhoLRg3UvxppNrKCMu4J+UCzwLkBjBkKa8Ob+smAshHis9oZYWJYjr5uFYAZrbK3YbuAOW1vk5SmMZurB68Fis+BxIpscFQwHjCcB3/BlR0FBvxg6f+gghddEhE0MMsBABUI6Nk0hqGnRv/71r9M9g1Ec81qYbB489627o8/k8j2QnUe83CpvtkNel27qJU4zTATKM9E0CgoK/gKGgDE/77zzlnFV0DeKBd4lDDJlJGCd+9e3BSh+0m8gekaAs9ZDEEfgVif8Tz755LQRiuv47CueCeI6Dltb5OUpzGbqgb4oi1zo8QliwWjDOCfEX/7yl8+6U1DQO8qKpAYIq2b47W9/W51//vnV3nvvXV1xxRXV5ptvnizpyy67rDrkkEOqL37xi9Upp5ySXOrHHHNMddFFF1Xrrbdetd122yWGa5B+4AMfqPbaa68U77vf/W4S9M6vuuqqtK2irWR//OMfp/ghJCP/gjkLmHvupQHKXdAD+shDwWhB/1LI/H1xiSWWmHW3oKB3FAHeBeaaa67qK1/5SrXIIoukH3l89rOfTRb4fPPNl1aSEsy77rprcpNfcMEF1VZbbVUdd9xxSegT/oT1yiuvnP4B/KUvfanacsstqxtvvLE688wzUxpvetObqnvuuSftjfwv//Ivs3ItmFMRHp1YY2FaJtZemAsvGG3gB/rXlNorXvGKWXcLCnpHEeBt0LRwME4/8Nh3332rI4444kV/ThNe9apXJQvp9a9/fXXbbbclV3q4OmnahDIl4IUXXpjtZme9S5c2TtDvsMMO1cc+9rH0rJl/wZwFUyshsNEHZRE9YfqeFYw+TJ3hBy972ctm3Sko6B1FgHcBQnf//fevjjzyyOrQQw+tNtxww8RICfHf/e53yWICgvqOO+6ovvGNb1QHHHBAWjUcApil7tzAJewff/zxaskll6zWXnvtJLh333336o1vfGNh0HMACOJ2yO9TDNGXNRbbbrttssbRBoHehPfyEPcGjclIc06EduQ+9w04Ja2goF8UAd5AO4v36aefToLZv7Avv/zy6ic/+UlipLZDdIx561tuuaXaeOONq2222ab63Oc+l1xkBqjAsibozZ1TCFZZZZXqvPPOS1q4dz3/xS9+8Vdzn+B5HgpGD+gkhC8GzhWOPgIUO3APnfg+mKKHHr797W+nZ859htiORpqQl7RC6DqP/KWbI8oRcUMhDcT+97wC3QjxyCdPNw9zOrRLbOBSLPCCiaAI8C5gnvrzn/98WsDm939vfvObk3XtPuFswZoFaO6Z8/bf7B/+8IdJWB999NFJOL/yla+snnrqqTRf/sADD1Qf/ehH05+9pLH99tsnKxxzKxb4zAAhG4LWMYSileRgaoWFDYR3eGjQE4UQbTh3tAhSXNeURjRCCIeghFxAhvD3TsTJFQb06D6PUcRTLs+VRf4R13uEjPveUUZ1EfL8xRc3Vw6UF+Z0pTPvG0H/+YkJL0tBwURQBHgbhKUbgZv8O9/5TmJOCy64YHXttdemePPPP3/1yCOPVHvuuWe16KKLpsVo9957b7XMMsukFeg33XRTWriGYW6xxRZptfm73/3uNFfOCifIb7jhhjS/btEbYY4RNvMvGC3kQsy5PuUy1ZeUPEycwOQWJ/QoekAohtAXJ4Sid1m/6Mh9FrH3WeMUSveCVpwT+s6l5z2wBkPaBDHlMubYQ1CjR88pEt4j1Al498WhcAQtEvACeEd5xBeee+65VK94l5BXpoL/BprwCSqeUNqmYCL4m8/x9U4zrrnmmmrddddNTAFBG/jTCWXIB1bMZS+99NKzN14QDETatEVtGB9Gt9BCC6VFbZ4T8AQ7ZhtWOOGNqamjdKVH4Ks7JhmMdZigLdTHNAILcNlll531pKAdLDpjXelH56uuump1ySWXJMGoz1nUlDlfIvz0pz9Nip/29fz222+vfvCDHyQrGr0R0Oeee2518MEHV7/85S+r++67L71DIL/mNa9JdNWkF+m4R5jeddddaWEl+kKXPns844wzUn7i2AnMlxP2J1AeNO0+hZUigL5NGVE0rdGQH5hWku71119f3XrrrelzKGXzhYU0CHD0j55D2AfkPSfDtNnXv/71NCUXvGA8zOntVTA2igXeQFMjDuGFcRlsYVE4us/qwKBcE26YFybtnvMQ8oAxiict95yLJx0hrqWfh4LRAqFImTPPyTp99NFHU9/6lJDwtjDt7rvvTp8QffzjH68eeuihxMT32Wef6nvf+17aM+Cggw5K0zGUP8/QjPCJT3wiCW90QjgGbQXERXPifvjDH05Ko/PDDjss0SUl7Iknnkjvo0cKhnimiC699NK0LoNVbYqH50kcuw3utNNOKa5nLGzWo7w222yztO8Bl7C68irJR7nQdE7PgTmJrqOe2iKO8Q9wbYMuCgr6RRHgbRAMZk5hMgWDBSEHhCePDCbNymalxnyzaRfCj4cmpmQITNYuT8yFF16YhD0BSlCzulm7Z599dvpyYYEFFkiCmbBuIoS6+Kxi+xJwtKFn5VlqqaXSfgYs6nnmmSd5gWxORBAfe+yxqUyEtXIrL4+LOnH1K49Nh3jM1l9//WSl28OAl4FHQHks4lxnnXVS+eZ0ENSC9gth/f3vfz8pbtBUwAoKekER4AUFAwaGjVmbv45FYYQyy5RQ/+QnP5kEpNXlvjxYccUVk/X6mc98Jglzgg/DJ7jNc7N0CWCfMlICCFF5iCeEkBDAPVbyqaeeWu28885JUSCogfJAKBO05tYdubqVjdtfGixuC9eUKcrvHe58z7nllZmrPhauue+cd0B5IVz5Mx3dKPzaB03wgOjzt73tbal92ylgBQXdogjwgoIBg7AjsFms1kYQjOHaJpgPPPDAtOseoUnAcbWLu/jiiyfBzrpdbrnlkuAUB+P/8pe/nNZasKY7CQt5EdQf+chHknVsjQmXuHS49wlWygEhLQ/n3PnKEsJXOeeee+5Ufs8JZ5a6fM3F33///SmPWNwmqKc8Iv6caIG36xfKFJoAHhTrBGJh4JzYRgWDw5QK8BjogbimtWMGAoIOBjVZYTxEmTCyXoOytwvt4o4XogwRoF09+g2dgAlH3s5ZYRhyMP6C3qDtzHkT4Nrv+OOPT+5nQhpzD8H+6U9/OglsTF67owWLwfTZYostVl133XVpBz+COfpBn3g/D2Ce3ZcQ3mO5WxQnLkFCYdC3LEBHAtk8fVjmBDvhcs4556RymJcnyH/+858net5tt93SdsIW1ymjBVkUBWVXD6vcpc09jHYCQXtBWzMBUacYWxFA2+FpFBv3vvCFL1Svfe1rq3e84x2prcN9Hu0xVigoGAtDsQrdKlZzZoga0U83YgB2i2b8doOulzTz9+O9Xss0EWDKmL2+YJVh5u7pJ0zad/AF3YMlawMgwprQ1p5+gGMuGkO3KnzNNdesHnzwwTQPTVBaVGZ+2Y9vuL9Z6I76xSIobm+fHeqXsJwjcI3bKOjqq69OfeaeXQT1HeFM8JpvN9dtnly5LMAk7Ln4pbfwwgun+XBz7/KxKt2cub7fYIMNkmuf4JaHryi4hNWFB8Ff91j0b3jDG2YLr8CcIJTUj4LlSCHiMjfnzVCxQyMlqKBgEHhJPbimTjLMQjNLn1OYFyTAMbdca58MdGIgzfJ1Gz/i5cd41ksz5/n1834ndKoPtyqrEfQH4cGyskGNz+BYdgXdg4DUhmAemUB1TVBypfqsyCdeIXxZbRaEEYaYPhAIhGFY2M8++2z67Ct3zwa4ySkKhLz5bAvepEmAO0ojyuAaPbiWDstZnvKjwLESxecJYIWjQ0oEIeRe5I1mpIFOlEka7kGulMurE/2NErRHhIC2MX603ZVXXpmmP/zJ0C6N2qcsXCsYFKZVgMfR3uIbbbRRYh6YRAiPyUInBtJskm7jR7z82KxrN8jz6+f9TuhUH8wbswcMnhBgXXGNvuc970mfEBX0Bv2nLQlNAo0QJPBCyHkuuAc+IbMKnTAQV4g+0T+scJv/UKh8752Dxc9Ny2KWvrRYxHnarmMellCRN7oQn3WtrJQIkLf74oO4hJA43g86D7oi8L0D3svpzXl+PYpQ14Dz/Br0GQ8Hw4Ri5tM/6xfEy/u8oGCimFIBHlk1szSnZn6I8DbwQ0ONeDHgR33gDwt67XICR9vbFhZT95nQTAKFEVMNATcRaCshp13phuUc7lP33QtXK0vWO67FFwhWVrrnrF0CPJi/Z4QnodoUCOrjGUvYMdKLfhQC8lSOeBZpGYe5Ze+5PEOJCLgv7UBYmCHAlR/y9sjzHyU0x01cO2qH8Kj4ksBvg3mqfGMf7RP1bh4LCvrFxDnWBIDwBQNewNwc474QA74Qe8FkAYMNATsROvMuGiYECT/BuXumhbqZGlIO77CCWesEOkEsDQJCGiG8434+XgT3PDOv7X3CNA/u5UGeEfJ70gLH/H7ci/jgnBDLj/G8GeJZr0G6QtRzuhD5R9Dv6kVxOumkk9IXBhYiUnSbylVBwSAxrQI8BDNXHAuD9uo8BgVG5FhQMJnAZNEftyfBF3TZawgQsHkAi8OEPD7FIb+OgP7NIZsDp9BypRMQhK/74kC8nwtHIZQHzwl99YvgOizCgsFAf+knG9xoWzvaWXBIyfKsoGCyMBQu9E996lNp1W0s0iG4ZzpYEu0YqbYJBh1otlfzea/otcuVVZ4z1YXuxxL+FGeBGdoLodsv2vUXxQBiMZt72pVQdk7gek/eppLEd89zY8Iz7mvX7ovHwqbwupdDfMKDUkKwSB+tRT/mkK778Sxc3hQBabgnjjzkqQzS9DysYvEo3/II933Ml8dYjjaRXrMMveK9731vOkpzomn1gqhD8whc5Vbn2zTHWh7jhLckvo2HKGvzWFDQL4ZiEdsee+yR5sARO8YwaLcT5iNNTEX6sZAIw8GEHAc5mNQLIwvmCfLDUNXRPWVSlphT9DyYXy7Ym23l3TzNKH+zDhEf8vuQP+sG8pHGTBXgP/rRj6pNN900ferje2kCciJo177Rp/o8+iv6T9t6R3AfrXqmHKxwQtAztOJ9iHfivB0ijmPk14zreV4OAjziBA2DfAlwY0d5XIcAR9PGlveaAjwUAvFAOZplyBHlibqBPE0p+ATOJ2o333xz+kRNHOlNB6Lu8rfPvGt8jFLVLFPUpVnv8dqhoKAbzBECHGKwEaIGDmYY7vpwLbYbUJ73O9DkFVYMrdznPZig+87jMyFl862oz36UMfdAyD9CIOrC5Uug5mXESCBnIs3y52l1A/lJY6YKcH/Wso2p77GbzHeyEX0XfdzMnyBEm57ldDFoRDlyoKU8T7QbAh28gzbyOKEsuw/9tqe0A/KlzCif/+nvsMMOSYA3855KxNj1lzZ/eLO/uc8BjetQWgJRl2b7Nq8LCnrF1HKrBhDwVBCxgU6A+sbWClF7UGNOhKvB5jnFIWcazvPrXsAKwXQwMm5ZO2/F1pMYYLggWRbqj+n5TEtZumFIyuuvUWeeeWbaEATjCGD4ExVC0S9jhZkGVjeXdb/93QuaeQSd5SFH3AuBOFlol3eeZ7vn7coVcZrxm9fjIeJGCJp21FfDAOOAIn7++edXxxxzTCqfjXfwmYKCqcK0CvCpAgFpIdDzzz+frEffz/q2OQYhJiSEEBcmgrBACGM/L/AdqIEegtX9ENT+OmUP7PhRRDewoQph/+53vzttackFTGmAcMkXdA9uz1CmtGPQQ7+BctgMQVfhenbu6LoZQDoQcRzjWsjzyfPOgzziCHHM0SxHHsd910I8l148y8sV+cQ7Ed91xI3rKF+7kMeNEB45R/0UZRJ/OqCMaMb/0I1Df2tTFgaChYoFBVOFaRHgGGUeCLb8fFAgnFm9wTQISltB2sjCBgvucc0ReuKAMgTj8K5rzIJFDSw1whbivnhAUXCPcFYP4e1vf3uyuDGeiOd+uBqlxx1nIRULQ5zIS5kshBE3cOedd6Y9qs3Zqg83+vLLL5/KCd5Vhhyu8xBtPVaY06B90YJ+0Sft2mSiIfoEww8aRyfyc09w7l4IJu+gTTQaruugLWk6xnm7AHGM/OMY8Fya8oi6B2L6R/DMFFez7MqV05TyOoanSTwh6hhlHi9E3AhRd8+MkWGB7WUZBOhHuQj1doi2CTSvCwr6xbQI8E7AEPLQLwx8gwtTcSR4CUVzzRiWa0zBPXEJfMKU8Haf0CVAQ5AbpNJizYvnfs70MBvnGHDkLR8h5sfc806sSt5+++3TtpiLLLJIylf63g2Bkrv5wY8ovO/a0cIeyog8IJjdRNqtoGCY0eQN+XXcm2zYlfCxxx5Le84bt6FszGRMVdsWdI+hFOCDAOFKMFuY5OcQBCsByhowj0YYc3fFilmClTD0CQ9hyJI1n8XqMDDFsWVlCFL3vWN1LBD+gMgJXiCkCW7xxA+BD/L2PAQ1ZSEEc6QhT3VQZvek8/jjj6c8CWrPldN9afEsQOQ/qAGn7fJQMD6a7RVhVIBuBkU7MxGm3372s5+lz9m4zecE4T0RBD1NFl01048wJ2BGCnBCj2A+8cQT06pVP0qxXStBRzg/+eST6bvz97///WkvaQKd8HzkkUeqlVZaKX3T6e9K2267bUrviiuuqE499dTq3nvvrfy8jULAeveHKT8q8I4/M5k/FWjnhx56aPqFpNX1iAkDD6IibAlzQn2fffZJrjeMgMKgXP7+5NMU/3BeYokl0iIZ7xPu3Ofy90/hb3zjG6mu5vQtlLvkkkuSy94fpAYtxAuGC/o1lMnxUPp/8GAI+AWrveatRJ9ThHehpSFE3SnTjt133731pz/9KZ3/53/+Z6tmTC8KvaIWjun49NNPt2oh2XrooYfSvVrYtdZbb71WPehataBNcZZffvnWqquumvKprdn0rBberdtvv711xx13pHc33XTTVj1gU5xacLbWWmut1nnnndd65zvfmdI54IADWrWAbdUWcUpznnnmaV133XWt2lJu1dp6q7aWWzvttFOqGyhH5Hf44YcbFa2HH3649U//9E+tI444ovV3f/d3rVtvvTWl/bWvfa1VKxcprvQOOeSQVq10pHShFt6pDuonHHjggSm9WhmZXcdoxwi9It456qijWrUCkc5HGc32uOeee1of/OAH03n04UTQTD/CWGgXNw9QK3ez6ccRPUQQxz1l1+eCawGtNSF+vOu5+GgLgjbzMNVo5h/1Bv10//33p3JGXzXjTzbk/+53vzvl1a69OoVRQV5W9YzQS30iTr/vd0Kk0S7dCDMZM9IC51oGli1Llws6LOCaGVQLLbRQumZFW9TGMq87OsVjia+44orpX81Wl7KIvWOnrloop788sarf9a53pUUs8qKFS9u7LHSfhLHgubpj1WwO1nGUx68exeEJUAYL06RHu+cm971rwDtA42cFQK0ApH+p8zgoZy3A0zx6LfhTvQpGH0GfjtZk8ODoa/TKo4QunJvGqRlZohs0FiGHNGqBnd6LqSLvox/vx9gpGBv2bFhhhRVSnzTbd6YAnQk8DYEmHyuYfsxI6gtBh0EZZI4GGuaG8Tl3z5w3YYmpeeY+IYyZue9odfhiiy1WvfWtb02Ccquttkouc3F9vuX77osuuigJVHlZJe6I2H0XirGOBWUQT5nMq5l/x0AxUu51jNa9JrynnJ5TQigqGDHBLm8w8KRRMPVAf+1Cv9DXaBU9gnNCWp9bTBn065oyCBRXAdBUTNugEQpePHfunve9Kw80mTPr5vWcDlNp66+/fhrbxuBMgzqhObzPNJ75frTVb30nm54ivWaYEzAjBThGhDkRjIQdwhN0qnsYls+vQmBjgJ5hsq7FsTsXLLPMMmkOWnyClVUtLX8c2nPPPdMqVItZvI/I7YVsgFtQRphikE1iwiwh8nMdlg/GbJAofygCTSi/MmO2lInbb789CXJpKaP6r7HGGikd19LI02leFww/0AI6YRXpU/2PDilv++23X1pgGZ9GoiX0IDg3BihzFM5999033UNngnO0/uCDD6Z80F3B+ND2b3rTm9K5/phpwFcEfPCaa66ZrfTlCuJUIIyRgrExIwU4wRyWhMFmUdoPfvCD9MxmLlxgYcFYaIZpGYgYns+0LGZjPRPCBx98cNo+lBXOXf3Vr341bc6CuKXJ4rYITl5c7D4Ls/CMxX7KKadU119/fSqPgWChGoQAh4cffjgxYkKfQOeWx2wtRHN90003JUJ+9NFHk/Jw3333pXJ5T/ktdvvxj388uywW6wlbb711agNCPdAU3M3rgumBfh4vELKO+veoo46qPvKRj6R/Tbv36U9/ujryyCPTYkiBRW6nwbPPPjtNAdl21BggpHmQTj/99EQfV111Vcr7u9/9btoYyK5+u+66a1IOcuTlmJNhnISiTVkyFiGmsoYJzXEdyp97zgXnFs3GznFhNOCPAZ/b8gDii2gIzwTv4n/aAg8aD9LE//A4R+nwBjlHU66lE2VzDcolD1D2MEZAXAEi/XYhaDbizkTMSAGOQHQeV+M999xTLbrookmQPfDAA2lFuj29CcBwEVlB7ptOVsi5555bbbHFFtVPfvKT6hWveEXSPsXzxzSr163yXnXVVdPuauaZERoLyI5oiFmQD8ZKqCoDwX/AAQeksmGwiDkI2SDBbIGAl36sXCeAzdfLxxy8Olk5b14eM6d0mK/3TLo33nhjYs729Q7Gojw5wUPzumC4gXb1FwFLkbSN7s4775wYnv5nYfsKAZ2hX3TM0vYlhL26MTNKqLjvfOc7k8C3i5+vNNAWmnrf+96XvEoEOqC1YIAFLwbBkguzYYN+C8FKwPlqBa2E4AxhHVOI4L7n9rjA0whV74C6qmcIWMG5fII2m4j3wxsaYIjga/IC7ytPCPEwOJQNnyS0HcMjAN6Vtnekz6BxTklVdvtq4KXuzXQ6npafmTThZyb570QRU45+OkC18vcIOO7GfPAhLPEQQcRH+HFUniAUgtw9cREQwg+iEx8TRWyeux/X6pNrn9LjjkKo3kO8jsriqGyeKad3ECJvgPdc5+WMeshPfPeVU36IWllcK0sO8XI0r5uIPONnJtYBjDLUJwcPBqHmEz3tGExkmIA+/ImLAsqzs/nmmyf69OkgZZJXKZih/hd4j/ybmhIL6667blJmWdzqSYibgvnABz6QrEp0bTooaHO60OwftK8+gPYowxZ3GlvK2ow/GWWXh6DdKP0nnXRSGn/5OOwWk9222ivKesQRRyR62XvvvZMC95a3vCUpeATpQw89VG288cbp3+UsbcobzwIh+J73vCcZAXjOXXfdld617bNna665ZuKlpmza1R3fk47PafE6Frw1A7yQph15KS3eRWtXXnllEs7oFs+ysx0PkkW9vJiMJ94idEp5la9ym5cnqL2HjvFI/eLot64rr7xyKp+0ZzKmxQKPwRAhCC7OJwMErrQNeMIcEBcCxbgQAoYgDjcSgo75LfHcbyoYBKMyOxrI7osXAjMEKCB019LAjLyHKSuPZwiT1knIe+49zwwiAlq+YPCLE8xDfgaq4D3viEvQguuC0UZYPfHXvo997GPJ66PP0UZYKUG/pm1sYGSvbrSNmYqLLtE1poYWn3jiifQVhi8ueH4oBeJMp/AeBWjLEFzG8bABHehD/MEUnP73ZYx+5+1DOxtttFH6EZKvVvBGyjnFjuDmySMkw3LGs4Dnh5B93etel4R+O+EN8vnSl76UvIRLL710okPtxIOJtxLOhDHeZq8Niiaa9aMp8XbffffkUULz6Bu92/MCL3PNEyV/ioDpTIqHMcDj6X20HXSuDWYyplSAa9yc4OO6GQaBdkwIARCy4TaSVwhPne2Zo41UQmCDc++KT7CKH+X0vnPPncvXdTwn/BGU+5isEGWLPCEELcID8cB9TDWeQ5xHfvJQVvejjI6hLBSMFvQdmsOIMSw0YsqHu5sFY1MhzMr9oDVxBdM/mJ+570022WS2hYhGuBhZQ7w6mLqFWJQC76ExrtZ8DrTgL9C+AWPM+A/hZnxFH0SYbigTulFOn7MSoj5/pajpd1Mt+pw3I3aKVB+WNqv2rLPOSopdGB+8M6z4D37wg0n4uz8eX0GXdoxkOXPJ867iUyxjebGYLbKVJxpcffXV0/SN+Hao9G8HeQQvpnyEsUOYL7nkkukdNEuwo+GFF144pW06SD6MIUD7MxlDYYE3wzAhhO0gIc3JSLdgZoA3KDwqmJTjvPPOmywTCyZ9EcG9aKxYjwEsKtYIy4Zb0vy3TxwxZF9RWJxp/vuCCy5IblVudS55jJ4709cU5sQJ+oLxYd2KKQtKlvYbdhBs6IkA3GmnnZJ3Dh2hlzBOrPEhKNECGiHoCU2058dJsVaCRyeMjrEgTUoA+mNEoD2ClOJIcUDfgNba/b0NfSsT4JPGACNIvuiWgJeGNKUfVra+4CGYkzAtAjxQBNnUINq5tPdoAGPDtDAkTBRDJMBvvvnm5N40H0kIY3KYri19WR0WXXJdfutb30qWDSHOvWg+EKM85JBDkpvU6nQbBXmX1c36segSE2e1FbRHjB3zrCxXwk17DduYapaH4Ayvoy9lDjrooCTU3eOKJmDR3C233JK2nmblcqG7h/YIYvVcbrnlEl12AiEtfV6jtdZaa7aSKT2B4ikOZUA7NiGOZ9IgqI2D8Ew6t2bFXLzn0gHToqx9785JmFYBXlBQ8GJgbhiTwI0YDAmjIoh9Prb22msnhoZRs0K4E1nnXKXcjhtuuGGa0ybQ11tvvSTwWS8Ejk/QWFIsGsyRi5J7lXXOepdvwfjQrjZvgmFViJWL8AUu8HCV+zqB0sbSJpR9bUMh2WWXXdKaCO51wtHiMfTHwnX+/e9/P3lz0FgnWCCHHuVBKaRooj+WvzSVJdZtoMMcyu3LG3kqr3VIzikU3rOI01dD5uwpt+blLeRUF3GVM0d4dB0jzCT8zefs/TlF0DlB8Dnhf+9730tbk+porhtMKOLm8QaNPI9+Qqc0xkK38bpBnkaeZtyD5v1maMLAMbjinPuNAOFyo+Xa3GYmAYOwGY5VsZhe1H06oD8wOyH6Ju4F2l3njMp1uCD1nbj6L+oVcTBT56yqsKza1V3c6YQyRn0xa/OnVhi7PxXllV4eKE0EOEUo74dAp/w7PR8EtA0Qhjbwufrqq9MKdGP3/PPPT8JVO6oHOjCv7NzKcXPKlEJ7UvgkVltzW7PUtTcXN48ORSbuobMIaImL/pvf/GZ6zrtj4RuF0VizkC68GNICbvBYaGf+3Zw7fkNRtUcGb4H1Heb055577rQO5LLLLktbT/M+aVNeJ+s/zH+7Fk87CHmbT0X7TxWm5TOyyDKOFub4rpU2hli4TwLNuNBvBzSr2rxupjtWPp3e6/S8E5rvj4eI6zhW+Tul13zPIIp5JczKuUFqHsx/y/0JbZTRbI9h+4ysl/7K+z+QnxMw4lNM9COFLKz6pvCJdJv00LyebDTrnytV0/UZWROmI3za5PMo+eVl6JT/ZJdPWeShfYSg6aBrgpSVTdAa3+jAPddohDXrXLtLS9uzdoNuWM9WjNuumSLg3RymZ3hzvK8c+EmUicCWDqVB2aRFGZCG5zlNRnnFcZ/A5zFSFuWWpvKSGxQFq9ot0owvcDxXd1CHZrs3r0cR0yrAA9x3tCjamY7SuQFEAPk7/TZ8M9/mdbcd3Om9Ts87ofn+eIi4jmOVv1N6zffaCXCWtzkyVofVqKOMZnvMZAGuPhild4JZE+KQM0uIdJv00LyebDTrP2wCXHm4ai36u/DCC2cLu0Cn/KeyPbWRtjN3TEjqc4HQ027uK3uM+RCM4roHyhtlFhdNWTfhW2yfhPmPQw7eVFY0QS19R0YZdzxIAw3i89Gv8nZPW0Z78saCOXyKAhd5zIWb85au/he3Scvuqbu6hPButvtU9sNkYSgEuAHp8wREFR3aRP5Ovw3fzLd53W0Hd3qv0/NOaL4/HiKu41jl75Re8z2DzkAGA8uAEoeQo+WaRx1lNNtjJgvwAIYmeIbZSaMI8P4QCpEdD60xsFBLGQOd8p/q9jSejeEAQandcqEKQR/GPGHJG2o8hFAXnwD1nPBVD/cdm7QE0ov7LH556cd4JxBKBiibd5TZUd7e5UJXJvWgWLC4lcU1q5vXQH6EerN95dfME5rXo4i/bvVpAMLQwDrMsR00doR+0Xw/T7PdfVAehIHIIgRBjBUmirxMnYI2EwyAOI/QjDNWyNMTDIqoS5wbWOoeWvlMQgx6zKrZ15MZ5CUMmm6iX9FE0AWGjRnqP33qOp7n8YIeJhNR33Yh2iPgGvAIbYaxTzfQiTKak7WxDkS5CLdeoV7GFxBWOY20C0E33QbC1jHe18eO6EG5I6gXGA/mj9FEzgtCSLoX9BLHdsjvx9aoed8G3A+E91XZBIg5bUI8+I85dOfy4IJ3zgBsR7sxJhzzMBa0DTd99KXr6B90OEwYCgFeUDCdsHkJBkaoCQXTB4wVswwmS6iYA2W9hfCYbigDBm89iO/xfXoV88D9KLgEmPTUmxCaLBBieQh6z4Oy5MItzqM/IBfCIdzbQX/F82bIkV87z9+bDETaYwVtQImhQKA97nptM9n90w+GwoXukwO79cT8Rk5Ak4FOVc7zFzdCoFm+TuWd7PoMGs32cU0L9emGlaLcmKOMZv3M5fkZjUV6Bmy+BmMyEXTRPDbL10ROTxHXsUlneXrOgzk308cwA3l6gWa6E0Uz/xzxjIABdEe5wjidW+z65S9/edoXsYF8lc3fDu0uZn0I2omyj4Vm+fx50OIu71FY1Gs89FO/KJN3I4yHsfoIrQjSk0aUNa5zqEtTIcj7133XQsSRtjRdj0WvY5WtW+T03g6UKd4GtKUsaE+efhplU5thUCIDRYC3QZ6/uBECzfJ1Ku9k12fQaLaPa4Q8kwW4z1N8RuZXskGHk42gizgGk+3EYCIeRFx1atJZnp7znGnmyK/jPC9Dnt8g0Kl+rB8rjsGnSgSBOU+uUp+c+ixquhexaZNY6OX76M022yxtnOOb+mZ5mmiWz5a36mzOmUJAcI2HfuvX7FvX7dou7kU+cVRnbR4CVoi04jqHeEF3gUg77nvfvXjXteC63XvQLHOv6OZ9irxyENb6mPXtV877779/+nPfsGCOFOC9IgjKgKVhC7Ggw5G2Nh6GrT69Qn9pAwLcZxwzbRW6jS0w3/hhwjQMiYRe6WSqyjlo+u1U7uZz18Hs/TnN1hXTKcDl18zD74i322675E63kY7n+IV51NgFLdB812YnfiziPuEddYoQ8R2FZn2HFc16TgR5nQeZbjcIpcXiSbvKUfSHBYNVrWcoMA+DERH5ZMJWlVYt+4Sk/Pxh9MH6oZSx9GIus2B4EBYf4RY/qZhONAUIIW1RlU/LfF5l73kWW8yjdgJrL9zNhDdFRYh6C3jQVAuuguFHEeBdgPuOK8VciL2madQ0bv9h/vjHPz4rVkFBwWSAYCPMKFfDqDAT0ngCQUyp5+L3oxjX3VjLPHkENyFu/jUEt3tFcA8Hog9yt/4woAjwLmAeDhPhQjFHagtCmraf4fez6rRguBBMkxU+Gf2Jiechx1j3x0Ov8XvBZKU7EbBGjT99MwwWeBM2GgF7JFD07Sfw4IMPpn9td2OBo7+wwMMbVIT28AD95cdhQhHgXcDAAvswL7roommw0Y6B+8xgc8+R64yl4FwIV1ggvi0MV20wTO8FgQSDjlAwWETf5H2kjzHOQbd3pJf3ZZyjmbgHcT9CjrHudwN1tDhKPZ03IU3fH7d7NhaiHNKUNnoO2s7L2i5Eu3cbcqsnH0vDAkpFXjftYaW8f1T78Yy2UQfPgzcEv4gQPCXvo0izify96QjdYqzy94N+8h8kov+GDUWAdwmd53tAglZnCrGHr3uYPyYItHD3YmtYwsFuQdAkQAM35sDELZgeTCZzQDsYs0AA6Wd56fNOCCaYh16BFlmCLD2hCWVhPUI3NIjmhahLrNSVjrzmdBDghLF/b/sxiEWfPhXT3/pBH+IX2g9PEZ/yE6GfPi6YPOgPtD2M/VIkRpfwH2ZC2D+Zt9122/RjeXv1cq+H9eJzJKtJ11lnnequu+6avYOQ/zX7x+5XvvKVtOLeP5rtK46ZWlHr++Ndd901McU57Yf0cyLuvvvu9DOIEHqDRLv0CAt/lUKnXLTtQHAQKN0wKXlI57bbbkt06+9WEJ6qOR3aQRtRZqxYtuCVMD/22GOTEnfFFVekce4LlthdLMJY/VMwvYhxNejxOlEUAd4FWMjxFxyb91tlusIKKyRt2k/rWSAWr/gUyZ7uyy67bPqcBPySb/vtt0+a+N57751+kec7Qr/v85s9f/TxzO/6/PPWt6AFMxvcqqZjCM2psFgJDHt2m6slQJogWHbYYYdkTXfjFZDGwQcfXD3++ONp9TWl1D7VEFNLczIIYe2gLSlEXOkUf+3rl57bbLNN+hGKeIS49hRPaNc/BQVjoQjwLmAg+hsODZkgx7SABe6+bR6XWGKJ9HN5DHm55ZZLA9EA9Y9d5/5VCzZ6MIhtiEL79s9c1r1B7Td8rCBaXh4KRgfRX8G8BYwbXYRwm2eeeRJNuO8eOhLiHee8MRTHoAHPYrrGtfcF5+5xw4Yy4B7BIB1xfJf89NNPJyErzyhXBPefeOKJ9J7yxPuxuMp5xOXy9VUGD5LdxyzU8kWGd1ieyiFPEN/9mQ51zEPUO/aHiDbxb26L27Qrq9wxaCLecRw2UDSVNegMDSgn2ogyhxcyQtBeDrvNtaufeGjbM/yvoHsUAd4F4o89CJgVgwkC1yRids3q/sUvfpE060svvTQxOUR90EEHJUbsB/S24jMXZjW73Zu4232GttFGG6UfIyD6gtEGJoThoQnMKJhcvoeyqRUMEf2gE4qhT4nExeQwdcqf5xgm5obJuQ6Gj+6k7xm64Q3iCQL3xEW3yoEOnY+1Iho9EsgBeSoPWlcX76qD8ikXi90/l5VFfeUVYwIIcnEFY0bZ2zHumYy8vtpJO7rHGo+2NP61nX5EA/ptGKchKHjKp6zqoK8F5+jYuTUU6gjqg2ZiKgHQlDiOQROC96UT9Q9PTkF3KAK8CyA4jAuhYr5BvIjUHDhCPOqoo9KOStzhSy21VLKwPfdXn+222y4R5jPPPFMdcsghaY4cM/32t79dffWrX01zibfffns6IuiC0Qb6MMfpiClR3ghqzAtz08cYlufx1yfwnHcnBC3FD22JK473pBO/TySwMch4X17iu5Z2KJzeka/028H95vfV4iuLdNAu5ixdwe9X/R8+6qAMgukg6VAYQmg5BhM3ZoQ5DfqEArf55punXf98J77yyisnK/zee+9NgpGXQ3vqs2jPCFON6KcI8VtRBkru8lc204CmBdEIutXn6E3cgLgMF9M4jz766Gyjx/0Q6O55PxZTFnSHIsC7AEbJxQi+A0d0iNfg+8lPfpIYp0H5gx/8IC3oMUjtm3vuueemQWrB0ic/+cnkOmXZYMRWsNs+1oI2g9ufjcyDd9qWtWD4QcgRzBidH13ssssu1Y477lgdd9xx6R7BeOutt6ZNgd785jenP1qhLwofWjEds/XWW1eLL754UvgwOmspzjjjjDTd4j/UQMBfdtllySI2RXP11VenuJgoWjQ3bcGcLXDRLEGBWTYh3jvf+c50jpHarnTNNddMCyxN7VjvYSEmJu7LCgs0Tz/99FRGSidmzJP0wx/+MK0FMZ/OkxAegYL/Bl4x//zzV9ddd12aPrOANSxwfRPK2LABPVFEldv/z03JXHXVVWk/jAsuuCAZIujObnTifOQjH0k0pU72tbdmAl9EN2gZndrs5sorr6zuvPPOtHbo4osvTvcLekDdYFOOmom9KOy2226tWmuffT1sqAVuq2ZMrV133bW1/fbbt2qia91yyy2tmjG3dtppp/SsHpitnXfeuVUTbuu5555rvf/9728ddthhrVobbdXCvlVrlq3Xv/71qLNVM+pWrbW2auHd+uhHP9qqmXRKL5C3zTC0hzLUzLt1+OGHt2qlZNbdmYNa2WrVwiidN9u+n6CtBDSx9957t2qGnWiotlJSHmussUZr6aWXTue1QtiqmXerFu6tWsi2/vznPyca2WqrrVrHH398qxboiZ5WWWWV1v3339+qLepESzUjbJ1yyimtmvGlsfOWt7yl9aEPfSjlW1vIrQUWWKB1++23p2s0WFvCrVrhTGWqBcaLQm0ZpjLKW3x5i/+zn/2sVTPl1uqrr95ae+21Z9dvnXXWaW266abpmXe22GKLVi3AU328v+KKK7Y22GCDFNfzZn6RToRO8E5A2bSDe9oLek1vuqGN0IO2qQVhan/X7ud1nQ5EG0ZfCbWi2Npuu+1atRKarvE7dKj9a+Oj9dRTT6Xy33TTTYnHoQu0l4uXWhls1Yre7PrVQrtVK4atWhls/fKXv2xtvPHGic6kM2xQH22yxx57tGqFedbd4UCxwLsAC2P99ddPP+83x20ntpqhVjWDTdf+JkTTpIVaoc696McYLBvuTnNdXEpWmddtnj4pkxaXkvf33HPPtLANagIvWuiIox7saV5aX8aUC48N64oL0tHPOIA1bjEjK4V1xhtjnpT1wnJfd911k5XGRWlBpPlqnyaxpllCLBfvs+pYQCxtdMciXmmllVIZuCYFFnG453O87nWvS9Y/d7ey8wBY02EaSD3e/va3p7JxjasH7xFPUlj0ymUMyFvdlJGV5b8B0ix4MbRR9IW2FALDOPaVtRauaYc5VrMdKNE0DxC6iH7HE3klw/PiXjuPD1gnhE9yqZtKNKVgChJ9FXSPIsC7AKaGSQrAzY2hBmIw1hp0YoTOMWrXW2655WzGV2uXiaC5y/zVxgBA5Jg2RocBY7iFiEcb+hStOJoPdOSato4CfVDqnLunz9EDeol+Rxc5I+eS9Omhf5ZTGk3L2IvAlIwpHQKU6xIdCtybwVSlnwfI6Us+8ctOAhnQKXpE52jZufRifjKfL3eOfk0ZyNvcv9XW6icdY0ceeX2a13MiCED9E302TIj+iaCcH/rQh6oTTjih2m233aoNNtgg3dPH+hddoFn97YsEgv6ss85KvIyAbwIPvOGGG9LXOpTRj370o+k3nRSDdvELxkYR4F0gH2CYn8HHAsGcETjGiMkFY0SgmB9mjdGyyjFf/zK+/vrrk7XEusL4MG4I4W5gFIw2MC4MDXNjgRN+FgJR5DwjKDG/EPKEJ5pCM2jA81yh8+mh+VL0JQ0wx2xzEPPqPhPDVOUhvQUXXDDNl4N3MEXpOoYQB7SrjO5Z7OZa3gS6/KWFRmNFurjq5ZoCq9yLLbZYSttCJsJbne6///5kXQnqVTA2tM8wthG60d9gfQZP4XbbbZfWPBC+FjKGUmc/APRMaPuvvrUR1n6gE6EJNEYhlSYFFK2hHQvdjJeC7lFGVxdAzMHsEJ+je7ECHQE6YngRh+XiHX8sw9yWXnrpRKQsFQuaMGvMGeE7UhKcR17jhYLhhv5kVWPMFib6+gDze/LJJ5PC9txzz6Vd+zBArnN0gUlaxW2qhWWOmbmPHrjEMcl55503LUg76aST0mIygtfCNW5L6foSwkIyFjqhSpBb5EZxBHToHWkKaFXweSNwZ4JFRcoqUBikKX1B2XxyRnllfUvHp5I8A76ksLGRxUh2HcTcKaY5Im+hYPgQfYPPoF+0bO8LdGZa0AJGCy+5y/EsfMwGVQQ7zwvFzj7waEkaaAPsGWBMUDrtYsmSNxVp7wvWPeFvXBT0hr/5nKWm04xrrrlm9qdVMGqDu1N5aZXmeBA+C4WAHw/N9DpdTwUMRgKARm3QzSQQRFaFD+pH/WE9Y1h27iPECWAruwlec9NWnlPYWMWUu9VWWy25xLm/Ta9Yga6dCVjjwipewpNA3XTTTdMz6zLkQ7BjovKV1jLLLJPqgvl6B6P0DP3ZATC8PJ7rV32qjOElIHiljVZ5kSga5sHFdW5VurRcK7O5ePWx45uVxvvss0+a4/cuWiUIHCM00Yme5RNx7GBnPlZZ3Y+65OiU3rDBlyjaN+rSLP9U1yfc2PiUYB2ENQ7c4+jUugt9ygMTtGjNBBriDtfv+ohL3HoKCoB7PqMzHnxmy7PDCt9qq60S/aE3NDNs0wlgnOgb/WS9SKxfGQa8pB4EU27SNbNkYfikKtwtwzYAo7zNcsf1eOUVJxgYYMjNdJroNICnun2UV7lZfwajnzPMJLB2WYwsjE590wk5TTiPwY8Gwj3uGUsFvQezJKQxRBZr3CcsMT7va39psMoJL5AewSwP8+rBcMUTQJriQCjIoGyeCfIhrJVJXIoFuKaESBPCBY/5esd9DDfycs81S1251cUzaapz0G2zjTvRc9QduGfNl2Ki6i3tXtMbNli8ZaFrs50C01EfbYq+tDEaQCf6QFkohfoZHehj9KLPld877sc6j6BdaTgGbUg37gctOeb0MixQLmXST5RVysywoLjQJxlB9IHmdcFwAVPBvPLQC/Stdxz1tXPzxoQfJuh+COkQ7vIE1i9BKo74zsWxmtsx7kkPo5QO5uJ991nOmCMGSlhjjhit81x4jwVpYLrKLE3pY1wsMIqD9OQB4T1QLgzdEbyjDNIQ3331EbqFd/Mw09CsX9DcMEA50JYyEar6UN+hg6BTNOCZuOiAUhcLHgV9bmW9c/QnDhpC6xG87z1xpYOGHMWHYWmPYcdQCPDQ5DA4xDNsCAaEIechiLF5Pw/tGJf7OTE3Q7s08jCVMJDkqVz6SHlmGjAmwijOm9AGeegEbRRxMT4CDSPEyCCO2tRz9K+Nw7IGC8Ci3W1biuFhiOJ73zUlwLVzx7x8QSfBEHNEHOVULoIb4n3veiZfUH6fu+VpKhdGLl/vuw5mHelD1DXSzp+1QzxvxqeoCKOMvD4Q10Fz2rddmGqgpzzvKGfcj/O4H7SnHuhAcB5xnaNx5wS9o2fxiaX30TL6zsefeELB2BgKF7o5P9++mh/ExIKZDgua5Q3CDjSv2yHiSKtTk4+VfvO9Tun0C4OTsAYMmMXH9WWBlQUqM82Fbjc9Uzg+xyIkMKAc/fR3jl7jN9FrP3fKL9JzbBd3Osvr3QgBzyn34M9+o+pCj3I2j7ZfNq4oU8OgIDfbsxO6jd/sF9fejdDueX6cLgyzC30oBLiNTRAxLZ8Wb2XuMKFZ3iZBdTPo4h1p5VpmOzTTy9/N0SmdfoFZhuVEkFttT6ibJ7YIyjzkTMKcKsDHwnSW17sRAp7PRAEesAaoCPAiwPvBUAhwzJMA515h7XHZDROa5Z1ugpoKhHIQDAWzPOyww9KKU6tLZxKKAH8xprO83o0Q8LwI8KlDs3yd0G38Zr+49m6Eds/z43RhmAX49FNLDb/WZHnrxJgjmcowCpjq8mIkwUysSzCIMBiLTWYaKIzoj7eB4qKu7UIg+kHcfkLelxNJZ6Ih8g9EHae7TJC3OzoM/oCZjiryOgkBCiPDhZJiYdd0o1nOyQqRl/7VBsFzIuTxphNoT9+YRrQYb5gwFBa4P9fEzlHmvy1mmEp0IpJmeaeDqPIyTHX+PifSJ/bktj+27zdnEljgNpz4+te/nhgJyy5HtHeTDgicboAZ5Wj2X6ch2G0+gWZ+TUR6ES/K4xhl6VSm8TDo8kZ/sIJsgmTrilH+jKzZxnYt23fffZPxEp6G8TDZ9eu177uN3yx3p2t0EbTUa5kGCX1iEZ7/V7z//e9Pe5YMC4ZCgO+6667VEUcckZhnaNpTiU4DolmeyR5A7ZCXYbryt8OXdQp2TppJsIOYOvnlq41UxnKhN+mgCPD2GHR5WT2Em7UYNrSx6c5MEOABPzXabLPN0meEnsX6k7HQqb0mil77r1taafZLp3ExKHqcKHzGGdsT26jGNM6wYCgEuEaxPSTGGfMNU4lOA75Z3ulgEHkZpjp/rmWKlX23beSyxRZbzHoyM2D7T//dtpGLtm0ysGjvJh10O3Sa/dW87pROt/kEOtFHpBfx8mM86zXPHIMuL8TnpazVAw88cEYJ8L322qs69NBDk5XHA9lUIJsoAnxqoT/Qn/9X2DFvmPjf5FJCl4j5R9BYOisPTejYQYZO6DU+DJrges1/kGARyBfDNFc302DeMdp2POYVcTAeAa12EyJ+hEhnskInjBUvp9k8vWZo1qcZ2rXBeKFdGnkAUzhTPbU2VUBzvvJw1L6UkvFCuzYaZGjXR4Iy5qFd2cYL8V6k16SrQH6dHycauq1nM+gX5adgKf8wYSgEeMHwwwAoKCgoKBgeFAE+Cci9B3koGA00NfeCgqlCobeCXlAE+BSgCPKCgoKxYGoq+MJUC/DpUlLlqd6DxKDTGwUUAT4JCOI0KNsNjiLIhxvB1MYKg0a7PPIQc3bgkxbnFtU4+jbV0X07GAbN9RIKphe58I5+Hg/N/usmmMfNaWM8HpS/l4fAWNd5sBg5P0bejlFH55679ixouwnP8uCz1kgnAsS9ZvwIgeb1KKMztRT0BYsewKIvhJWHgoJegPmGwLbg0+dGp512Wlq9fO+991ZPPfVUui9YdFMwWsj5wmQIFguEGRTo5/TTT6+++c1vzr4OQ2OQIGCjHr/73e+qs88+u7r77rtnL9IDwjoWtPn1qPs2iepmoyg/Qbn22mvT1s4+/XziiSfSfen55GtOQhHgkwQMVwhBXlDQLzBZzE949NFHqw984APVm9/85vQ99AYbbFCdd955idbslFcw2pgMAU6wUe7scUDpO//889M99IS2Bg1/FpMfmiSQ99lnn+r73/9+EuzgUzl8kfXt/pprrpk+5fQjq/gz3ng48cQT0+ZLO+20U3XKKadUF154YVJGKAVzzz33rFhzBooAnwTYM9cnL29605sSoRUUTATBgLnLCe2llloqbSxhA5r555+/evzxx9Mz1gymOVFMhhApmH6glc0337x67LHHUh/7fBJtDRqUAlY/Ib3EEkskjxHlkmAnZINO0TTB+/zzzyd+GZ8Sd8K3vvWtav3110+b+/A+UUpY8RSCYdiKdipRBPiA8Z3vfKc6/vjj0/kjjzySdpgLcFUZOBEKCrpB0Asmd+qpp6Y/wtnSlgW10EILJUbm/+Hh8cHEwl3J2ok5w6C5ODbpMQK0ux+hYPhBGKKBUOicA4FpMybQ/8056maIOOgo4hDQQvxmGMQhqNGevMULYTrPPPOke7FGw7uR1tprr52E8AILLJD2m4j7BL20nUdQF3nccccd1fLLL5/usdql538GlBEhaB68I00h0LweZRQBPiCE1knTtOUjwkKQ/nEeCEIsKOgFmCMQzuYS/T8/Fq+hJ1uNiuM5Ru2+ABga5hY/YRA/mCRIJ5g85lgw+iBYYzrl8ssvT/PQ+BMaQQ8hQB3Fcz+E7R/+8Ifk9kZHnqMJiiNexs3tPuHIikZvlEdgRUvLM5a1c4L0t7/9bUobPbqP7qQnHeeOgjjiCyA+i11Zgj7Fue6661IdchpWDnX2PF8DIo48ZzKKAB8AEBjCQeQrr7xytdxyy6VBg7COPvro2YQWx4KCXhCuRXOXaGqHHXZIdIVBoT0CGm1hYDfeeGPaq/nd73538gaJgxleffXV1c4771wdddRRyeXIDWkBnPQ+85nPpK1k/awmmGXB6MKOYbDffvulbT+32267NA+NjghFLnTzyOiEdfyjH/0oKXiEra1C/djHO5tuumlaMEZplJbjZz/72SRAwUKyww8/vFp00UWrK6+8MglLhgslwL8FTB/6QZC00We4zJ0T8JRH6zeivAT7mWeeWc0777xpz3t0zhiSByWDQnHppZcmob7RRhtVX/rSl9J7F198cfod8GWXXZb2lb/rrrsSL56Ju0b+FeoBPuWoNa4XhZqxtGrNLT37z//8z1bdUS8KzfjDBOVRRuWOsjs+/vjjrdr6flE9RhnqWQ+k1hlnnDHrzszBfffd19p6663T+TD2U828Uvs/9dRT/H6t0047LdFWzZBbb33rW1sHHnhgOt93331bn/rUp1q11dRaZ511WquvvnqrZnatm266qTX33HOnMfbII4+0aiba2nDDDdP5Jpts0vrCF76Q3q+Vglk5DhfyPtlyyy1b999/f7qnXSD4QoRhR7O8u+yyS2r/uJ4opFErc60bbrgh0Yv2Qgf6f4899mi9/OUvT/G0X21spDatLd8UFl544dbGG2+cxkQtoBMfW2GFFRKtaPNaQLbe8Y53tE455ZRWrSSmvI455pjWG9/4xpReLTTT+TXXXJPyFGph3fryl7+c3heUTV5w+eWXt2phm2j7N7/5TeIvtVKZyi5t79UCv/WLX/wixZeXOtVKQev3v/99ot255porpYnujzjiiNY//uM/pnLIo1YmZucb7Rvn3UJ82H333Vu1spDOhwXFAp8gaJMRQrt0fN3rXle95jWvSdcRr27vdF4w3NBPeZhu1Mwm0Q96Qlu8PFbbsmJY3c8991w6rxlxteeee87+vzmXJ6vmlltuSR4i9xdbbLE038iCcV4zu2S9sML8rIELtGC0gVZYrBY66v9aKCfLm7u7FkbVMsssk+Kh7aWXXrr65S9/meKxWFm8FknWQjj9NvOqq65KNMZqrxXB9Nc0v9VEa6xhebHsn3322eTN8Zkad/q6666bnqE5vBANB39kwXtHWZQLWOHOWd/Wc6y11lrJcve1hbLxFgHLWlz07tynZPJC71awo2EW+rHHHpvi8yCEV0l9za2DcswEFAE+IHRLEMMgEApGCxgQZldbIYlJmpc0V4gpYq7x6cwiiyxS3XPPPdVXv/rVtEKdgPZ8pZVWqmrrJjFZbk+Mzn+1PfMXQMLc52jcl9IvGG2gF7Shz/EltIJ+3MN/CFL3BOfuCQQnoYk+pOH8oYceSgJzjTXWSELV3+AId+8S1qZdvvvd71avfOUrU96UAIJYfjG1E8Ez+TinOFIyKJYhVOXpecSTL3e8MlIqKJcEfLji5cENT2CDa4Jd+u6JLw8KQNQXfXt3pmAoa5J3ujDqmAl1KJg+sDRYLCwqQhcTCqaH6WJcYK7wmmuuqT7xiU+kz3cwbEzUSt9tttkmzYPecMMN6dtZzA2TZH1hxH7pK+SLgApGE+iBlRsL1ggw/Sroc0eCDm1EvIBnhB4hR5Cvttpq1c9//vM0P+4+XoYezW37IgLNrLjiirOVSHTne3Pz5fIOAUoZcC1IA206EvzomdBWHkL81a9+dXomLq+TuJ4rG/oPIe893gQWv2tl9OUPBeItb3lLmo/3jmeUAcG594WZgGKBFxQMOQhbzO3HP/5xOj744IPpPiZrFypWN1iY9swzz1T3339/Yn6YKAsKs33yySeTZc7FzjLnTsVUDzjggJQG6wojnimMbU4G4UdA+9SQQGQ133zzzYmOTKsQsKxR1ivXONpgsdpPgNVurwHeHsL3ve99bxKiK6ywQtr1zMKxK664InmBCE4KIQH7wx/+MC0m23jjjRN9cb8T8KZmKADc74QpoRuKAPq9/vrrk1AVB+3J12dlPhUTX7rqwKNEANvISN42gBHfYk70e+SRR6Y6HHfcccm9z6sE0tAWBL/gfCZhWgS4zstDJ/Qaf6rRLF+nMN0IDTRCN4iyzyT306iAu9EWkbfddltaVfzAAw8kRuYTIRaSDYMIawzUt7aY3llnnZWY2H333ZcscIwSQ/f9LFe778d9KWFDDBa4eXKMGYMtGG2wqHlorDCn9MU8MwvVynNCGF1QBHffffckBCl6nnOJm0f2+SvhZ7wT/laFU/je+ta3Jrry1YKvGdCQNRQnn3xysszBKnBz0JQDnqMvf/nL1bbbbpueEaLSxUuUk2uc4kmhRLsseSvauc7lh1atLud9QvOO6FS6Nm+xixuh79v2Sy65JCkQJ5xwQkqfYiHgcfJq0nYv/G9oUVdg2tFchV43+otCwWDRb/ta4XnmmWfOupo5aK5C77d9JgtW5ypXzeDSSltjBKzCNW5qaypdNxF1uffee1s77rhjWpEL4i+77LKtXXfdNa3WrS2idN9z18MG9QiUVeidoW1qQZmCNsp5qnv6OJ7HeSBoS3nQSdAYOA+IVyuVs2kM7QQdRr+4FuRRC+PZdYu0IcoKEVe82ppO8VxHfHEjnSiLd8VVHsG5eHmIZ3Ht/Tx0gnegrELvEmHtRSgomJNhnpsl5BgLhGqmlixzLnWWRc3IZsX+y0IiQTzuR/OU9VhPK3LBIiBzlSx3VpO44LlnBdOHQfA7/R7z2ujENfrgumb96nP9LMQ5OhE8d+RqRnNBY8CFLQ3P0Ux8FaHMMX8tr7B0lUE8aXo3IL64XPjOg+a859w954L0lcU8ei2EUzqeGwfSqAV7uh91C2/DeDAWhJmA4g8tKBgBBMMzx11bDbOZHsblfjBNDBuTc829KZ5NXc4555zkOuWe5GK0qti+2MH4zI9iahhmwdRjkAKFQNOP+p5rGk04DyGozwMEOyEoviCuOOA+WkNf4knDdQhX6RDYgIa857m4XOCeUTo9I8g9R2fyIfAF9Y7yoHHnyuCdKI/0In/peIcQF8dCO0qIoLxzGspoLSgYYoRQxawIZnN9GBkGhlmycjBp8Vxj0o7im09036p0O7SBeUk7svmTE2sl3g8rq2Dyoe/yQDjpp0EhFmqFoNPPzsMyRxvOQxgHPaEz9CN4ji4gFEJpBH15xz3vuC+w1qXtvjwjH2krk7zRmfvig2fiR1mkH3E9I6Dddy2OZ/m7zkOxiGMT4gmB5vUoowjwgoIZDkzWCnPbYVq0VDB8aCd4JoIQclONbgRjt8JzuuowSigCvKBghiMspYKCgpmFMqqnADTJPBRML+a0/giLx/zioC29gt4xp9FfweThJTUBTTsF+e7Qt4LmR8yZmCMZJWCKFleYK8Ik7R9sj15bDp522mmzmWbTdTRd8zDNLu+2HDZLsLuRPw2NIpr1juuf/vSn1WGHHZb+jATmJHNMVz9BlLHdMG2Wq2llx7XFQ8YVGFud6DBPJ2g3z79dWQaFSDt4gLIrDy+CZ/bi/uIXv1i94Q1vSHWK+zmms7/GQ7OccW1aY++9905jy7fY/XpL2vVju/4LdIo/Fl1EnGY5xfee53l+kc5Y8SHShDxeL+XpFu3KkSPWEASkj7d/+tOfTos/3/e+9816Mv0oAnwACOJytJuR34laPQkGJ2EOQSjN41Sj2eXdlmOmCPDmMXYis8mFnagoYzmmq5+gWdYczXI1x0087yTAx2NokW/OJNuVZZAglGP8WF0sP6uXLWi66KKL0q5coyzAm0c/47BBCsXR5is2KOkH3QrIQKf4Y9FFxGm2c7wv5PlFOmPFhzhCHi/ud1OebtGuHDma6cnXJ5a+5PDrXb9ZHRYUAT4ARBPaSci2lna3siLSykkam093IAileZxqNLu823LMNAEesCsVq86OZPEpTI4m45hKRFnaDdNmv3UrwMdihIH8ul2bNdtn0FBeghsI8lhlbzzZFtT/qmeSALdHvZ3NWH7K3m/7tuvHZl45OsVv9xwizljvRwhEvLHiQ7v4kD9v9z7k73aD8dKJoA8i3fDIfepTn0rKls8vhwXTx5lGGHlHC/G9pF/xYSzxpx3Mxa8fA0EQCKZJRAXTB1s26g+CguDQf3mgfU9XGK8MeRnHiiPkz8aL123I8xx08N2wn1kQZoLNQvQJF6ZrivFMQfAAvMPnU76DprAEfxi1AO3ujxV6jT9ZIeCcckvJxbvRmoAvoD902HSvTzeKAO8BIbADcR1MxUC037S9fe3Ju+uuu6YfAACiCCuoYHow1sAlNDBOP0MwQA3iPDTfm8oQ+aOfZuhUTkCfnmFIQtzvFhHfMfJpV5Z+QqSXhyh7lBeMK1a5usS9UUSz7V1rB8p+LDCM75/7CYH8Oj82QyC/bh4hfw7N6yY8a9en4yHiNOPFdX6/GS+uuw2dgM70RYR4L+oyTCgCvA+E4I7QhD/xfOMb30g/APDcICUgCPoixIcP+iQswNI/wwfjh4WKgfoT1SgjBIFAOIR7lnUntOMnBQVjoQjwCSA0s3aIHYcMStq1IyE+yhbETEP0H8tbH3FhOh82RDmboV8MKp2pAqXKwkJHLvVRBqGNztQlV0zQXWwzOidiPIOoYGwUAT5gBEM0EA1SA5TQDiFuABcMF8xxYaZCbB9ZMDzQL+YgHftdoT0swBfwg7DA8QhHCn8s1iso6BZFgPeAsSyX5r3QJA3SOI+9fOP5dCIvb5R5TkKz/sMexkI38eL+ePHyZ+M9HzTyPDuFQH4+ylAPfABPcIw/c1FSos79hibaxclDE83nlAyfV5q+sGDXGh//EPdf7jvvvHM2jxsrdEIzTq/vTwby+g8zigCfQuQEMV2EWVBQMP0Ya/wPo8CgVPAe8hz4hM+PSh5++OHq/e9/f7XjjjvOilUwHSgCfAIYBQ2tYPQRdNYM/WJQ6RTMGaBscPGzuB944IFq9dVXr4499tj0e1p7X4SlHKEf5O8X+uweRYAXFBQUFMxGLkwFn/A9//zz1WWXXVatuuqq6V58Ojveort+hK+0C7pHEeB9oKkhNkMTzftjxSsoGATMq8Z6C4snmyhMsmAsBG04RgB7JdhyGD1ZUGgu3Jw4t/ozzzyThHws3MXb4j3nVt2L/+tf/zrRpRX3sXjP1wWOsQagHYJfRij4bxQBXlAwwxCMDpMMS6mJYLAFBU3kwlvwrfodd9yRFqydffbZad6bK32hhRZKK+fnn3/+JIT9xGmPPfao3vzmN1fHHXdcSovgvuuuu9I2pBdffHG12267VRdeeGFKi9C2hfbhhx9e7bvvvkk5CMWzoDsUAV5QMMNAeNtzgOUTFngR2AW9IJRAwfz3kksumX4ms8oqqyRhu/zyyyeL+w9/+EOirTPPPLP63ve+Vx1//PHVDjvskI6Bt7/97elHQf554WdPdqhkse+5557V7373u5Tee9/73uoXv/jFrDcKukUR4AUFMww33XRTtdRSS1XzzTdfteGGG84W3mFRAcZcUNAtCHF71C+99NLVvPPOm1zfzz77bNrngqfHwjbbRlMYWeSUR7DwjaD3jwj3lllmmfTntZVWWikpBV/72tfS3LrdK7033px6wV+jtNYAEJoq4sUguYx23nnn9Ps5P8ooKJhKcFc+9dRTadMTVtH+++8/mzHGHGVBQTsEL8uBr/lHgPluQjg2p3IE59zphLr/6p966qnJFS7uYostllzwZ511VuKFLPBNNtkk7YvBIudSZ7ET4LFbZUH3KAJ8AAhtE0E//fTTaaXmSSedVH3sYx9LxFxQMJXwxzBMFeLnLAS3+ciCgl4RtOSTsdgimgAmmK2xYLR85StfSYrjTjvtlNzhiyyySIrD4vaMUfPzn/+8OvDAA6vdd989udDvv//+tCHMpZdeWt14443VDTfckNIv6B5FgA8Q9jK+++6700YHQHM944wz0nlBwVThmGOOqV75ylem8yWWWKLab7/9Zm9HWlyUBd0gLHEhhC1+9qMf/Sg9N/d9zz33JKFsdbmd2m699dbqlltuqW6//fbqJz/5SfpW/Pvf/3516KGHJi/QoosuOvuTNHTI+r766quTS37uuedOLvqC3lBG8wAQTJHgftWrXpU+r6CZssjNDcW8Y0HBVGDhhRdOjJW7EkMlvNEgi6npHi0o6AQWuE/INtpoo8TTrDb/1a9+Vb3xjW9MbnCCm7Bea621qnPPPTdZ4ptvvnkyaJZddtmkRL7tbW9Lbva11147udWvvPLKtBHMeeedlyz00047LVnrPkkr6AH1wJ527Lzzzq26s9N5raGl46jg//2//5fCf/3Xf80OtQXUWmSRRVobbrhh61//9V9TncSpGWh6Pqo44ogjWmeeeeasq5mDe++9t7XVVlulPqqtjFl3ZwZy+ozzCKOCvKxbbrllq7YGU32ir0axXsqJL6gD/lcr/eneMPIH5cLHQHmDRztv197qIH48O/roo1vXX399OnfvqKOOaq2wwgqt3//+960XXngh3cvDdKNZHkGddt9999bll18+K9ZwoFjgkwCfSTz22GNpBSbrh4Vu/pFVzoVUUFBQMCrAs6ylwMPMa+NpFqyxzGshPivWX1DLlOTpEZ8F/rnPfS6tMrfy3FqhWhhWK6+8crXxxhunRWs2iCnoH0WADwj5nBECB8SNYBFu+R94QUHBTAC+Zj0FAR0bBRHceJ0j4Y3nebb44ounOfEvfOEL1UUXXVTVlnia9/aVjnSkMexQp7x+w4QiwCcJ//Vf/5U6m8YqIFaEjQgKCgoKRgX4F+sb/8LTGCmurRhnnTcFm3v4H0Nm0003TRu0WKDmMzIW98EHH5zm0u3iFgt+C/pDEeATRFjdTSBeRMp9LtBGxYsFbwUFU4GgzZxGx6LZgukB4cczRyh2wx/En8oAeFmcE+iu4xyCpoR47sjz+JrXvCZNK/ree4UVVkh1JPzFjTRz5HlPRuiEvC7CMKNIk0lGkwCGnSAKCgqmFtzNhBph15xTHja041+Fp00figAfEBBxhIKCgoJOwCvCGo0/dMWccsHwgNUe0wTdWPBTiSLACwoKCqYRYYGbdrOCu6CgW7yk1iimXaWwGYDfytFEY/FDwfDhyCOPTBvVfOhDH5p1Z2bArlF+afiNb3wjLcApXwoMF7Co8Gx94AMfSNtx+jkGXqGvmixs2L1gUd442no5rHCbnoy1MrtZz+Z1QXfoRB/kj/UIrO7cI2IXOjtrrr/++rPuTD+KAC/oGkWAF0wHsKiZLMBtdfvRj340CQv3YmFYE816Nq8LukMn+sADfCanP3hHAn5/utlmm6Vv2IcFRYAXdI0iwAumA1jUTBTgASu0v/jFL6ZPqrpZhV4wuQh6Y4H79I0g1y8ULRvS+FnLsGBaqEUD5aGgoKBgToYV6HhhvliqGTzLAwWmhN5Dsx2bgfAOy5tSZV0CRdGRgj9MmFIBHoQYiGvaTVg97azvdsQ7nSHKPRND1DGA4BGzgID/8R//cdaTgmGFfjrooIOqpZdeujr++OPTPfOr5vX0Z8H0goDIA56nXxyNwebzCPhkHsQvoffQbMdmAPIozueaa67UL94dNkypCz2yah79N9vfarjFNNY///M/p/vQjDsMMJhmMhCvvY7BXJBvU7X/17/+9WqDDTYYKhfSIDDTXOimpNSFUFCf008/vdp6661THxLudtQaJSh3jLmZ4EJv4hOf+ESaQmSFhyAvGC6gsU9+8pPJhe5Pa8OCaRXgAav6/L/Y1nr+LRu7/DQH4rAMzJkuwFnbBDcQ5PZwtz7BD1rM133kIx9Jz2YKZpoAZ3k/+OCDyZNCIX7/+9+fftdo3Lk3agJCuYsAL5hOoLEiwGdl1czy05/+dLXddtul/8F6xkqAGIiOQrg0phujxiB6QdQt5nowSExf2/sxv3/6brvttunZTMFME+BHHHFEdcABByTPCcXr5JNPTl6T2It/WMZRt8ATgi6LAC+YDqCxYRTgL+WuDisrXKVgviye5RCvXxhYeQhIc4EFFkjnhDcLXLD6T/BZBaJuvl/C4ENAmwvoQWCVYzBjfeJSMDzYa6+9qi996UvVmmuuWZ166qnVFltskfrW2GoKu4KCgtHFS2notFjMOb5DFGjrnoUrNRYyiTdohMuW0lC0z4KCicF42n333asrr7wyfbNKMQ+leNj32i4oKOgeL+UO3XfffatDDjkkuXH8t/Xiiy+ufvjDH1Z//OMfZ1vl4VIdJJpWX0FBwcTBRc5VHgo4pZuXS5gMBbygoGB68NIzzzwzaesf//jH02KXt7/97dW9996b5s122223tHnHAw88kCzybucGe3XTSZerPuboCgoK+gcvljFlPhW4zmM6KtaXFBQUjD5eygI2/+yH6wsvvHDal/czn/lMddJJJ6X5s/XWWy8JeIvM7rjjjiRgzY2HoCV4uewCwTTCFd+NMMdwWPjitrPIw1KfqqAcVlw//PDD6Xqmo1n/ZigYTcR0FMGtH1nm+TRZwfQg2r8ZYBQNGHsMQMiB+LPaqKJdvwwrPxxzOaqCmzNbbrnlqu9973tpVes222yTVky6r7O418Myp9kLE53DHoYGUofVVlstbRlaLJaCgoKCseHzXwKbTHA0TfOHP/yhbBw0BWgrwHWA1casaxohQT3PPPNUjzzySPpbjnnz22+/PWnztHpCLhbJ9CPwwjqAYfjEBdFZwfua17wmKSgFf+mXYdM+C7pH3nfOS18WDAp4g2C9hSNv7XzzzZc8uvYjKJg8tJWWNKfoFCDQCHQall2ebORx4oknJms8Vrh6JoS7rlcMkqFMNC31VS+L+Ape7NYLl1JBQUFBAM8lNyx+Pu+88xL//P3vf5++nS6YPLQV4IQwpu3InRzWdbjH11hjjeqcc86p3vjGNya3+k477ZQscnMfOjK+FXeuI6XlTy624aSR5fPdAkUhzoVBCQmL78xly89fZZTFeayul5dj5MftQwlRfn/div2jlc8/eh3N//MyRPnbrc53//HHH0/bV/qMx+5yoQyERwPEA2nK99lnn03pyku67okjPP/887PLr3yO4ilfxBHce+aZZ9K5+NKYKPK+cp4LdOfRfgXDCf1WUDBZCK8rfoPPMvbICjwq5scLJgd9+asJdu51wvuss86qNt100/Szc5tHWPRmEZw586OPPrq66KKLqiuuuKL6wQ9+UN12223Vkksumdwr73nPe6qzzz67evTRR1OawWQGxWzOPffc6k1velO11VZbVV/5yleSoCNojjvuuLTa/nOf+1yKh8AIeSvueRSuvvrq6mUve1kSTAS2uvI20CR5H2IBn7i2FY2fReQgNN/3vvelz/G+853vVG95y1vSPQQd0w3KYpGcfeDvv//+lI6picMOOyzl+bvf/S6V7cc//nH12c9+Nu1nfdNNN6VrLirlEUcaW265ZWp755QpO9qpz7e//e0k+CeKXEA710fqEwpG3M/jFRQUzBmwBsrYt22vqcd111033bc9tq+YCiYPfU84W7hgfhgDf8c73lHtscceSdCccMIJ1VprrVUtu+yyaWU7bYzQCwEKBE+EF154IaURgiCOEwEX+IILLpgE8A477FCtsMIKSegiLj9NsW1mfB6njGuvvXbarcofnL71rW8lwUmTtBZAWspPYSHAKR+20rMWgND1rAlC+pe//GVqH+//9re/rX76058mQo/6hZveSn9KDu/Ehz/84aT83HDDDWn+nfCnaMiPJS+O91xTfghnXgNtqP29c+edd1arr756tckmm6R6uzcI5H1EEdEegvNceBchPpyI/os+LCgYFFjbeJ7gHA9lTNiieKWVVpoVq2Ay0JcAZ3kRjsGsw6VKA1tkkUXSz0kIRC5kljYL0aru173udckaJxyvu+669Hka6zQEQISJQtkIahqgvbudE8r7779/tcoqq6TFFYSrvLijHY855phq7rnnToKR0sFKJmDvueee6hWveEV11FFHJaEd+NrXvpbc4jwNedm1BUFNKXCNYdq32TWwrt0PJQPs78wzwaPBdU/Yq4M84De/+U0aDPJSbsKcwKbpXnPNNdW1116blA3tH4tH7NnrGAJ2kKBwmEIRnCsvZSLaoFfEe81QMHiUdi0YJGKs4mt4Jjj3afLLX/7yJNALzU0e2grwXFtvF3SKo44hrAi86CTPdGAg5s65rgmhd7/73eme9yCEfw5pTwTep2QoVwhjwozA8327+XhzxfJWNsoEq9e/rlnl3iH8udb33HPP9BtNgtGiDCC01JHAp20GEQshwHkivvnNb6Z3WcUEqTJ5zmrOV7eHy56XggCnMIAFIQQ/peODH/xgssa5x8XlQqcIcb8DRSTc89Ig0NUx2nmQkKb2oTDI0/SIqZS99947KWsbbbRRmnbw1QIliAKSg/IiKDMPRrRdE2PdLxgf2syPZ9DOhRdemO7pJ0A7BQWDQsgEBgfEeMVX8Yng5TGWy3geLPp2ofeK6Og8BDCVQXcwQfb000+no/S5mTfbbLN0ztpGYJ7Jb9FFF00LzRZffPEUh3Am/JZffvk0J27u3jsEI4HD9W+3Om5qlrA0I0gPs6QMcNm3+3ON6QcgxHIQ4NzSAZ9lXHDBBbPbRZsZKI533313+oub8pnrphDE95csYuX8h3/4h9nvDhLayDoCXhaKBU+KH2hQMHgNzP9bE+GerXlvvPHG1L5RX0ftT1HS1lHGZijoD2iVAL/55purnXfeOXm9Yrw1aa6goGB0MWUCvB1CkIdQijAISIdle8kll6Q56J/97GfJ3Wxe2GIwgsO1X0gSQoQvFzahwmokTHkM7CdNAHFff/WrX01WuW1nxWfRzzvvvLNy/AvkGx4IApSSoH558C5QKqSP0XqPS97zWNhnTp4Ln5LA0pc/a97iOHPlFrx9/vOfT+VWRqCMqCvr10r4ybDACYGop/qBcrumdJg28f9pCwkpORbeffSjH60OPvjg5OFQfwqSti6CevDg+dHG+gmNoXftzANEcSooKJgZmFYBPpkggAk4f2Qyr21O2Kpx7nOC9ZRTTkmLxCy4I/RYj4QPgUngcGMT9t///veTImA1O1c7l7XP6Kzyfu6559Lq8CYwSS5zDLTdZxSsZXPGrFRrA+66667qF7/4RXXfffclFznrmfDlvseMudL941kdzCuxui0cpGgoG0vft5e/+tWvkpAXh4tdGoNSiHKom5AjBLq6ca0DT4P5f1b4ZZddltYi+GEO65BgobCEAlAwOKApNBgeGF9jaGf0GMpjQUHB6OMl9YAeuAnUrdAI64uw8Tc0DGcQkH9u2WFaBA5rtGnx5QyNFTlRSC/SGasdmvfHay/ljdAP2qXdS/5gSoBwjmkEykyO/P04D1ettmiWn1eEYkIJ4c1gGRL8sTiy2Q+dyjdR8LT4MoE3JuhklGGthjUnXOcWSH7qU5+a9eQv9KQ9J7tNB4koM6jPgQcemBRDNNZuTA973Zrl9UkqxZYBYQyMOv0169fEqPVPlJecYkSZPhwWzEgLvNkBmDILhFUewoGgDeHdTmhMBhBCuzCZ6DSYBg358QywAAUMSR2jjQWL3M4///zqiSeeSJ4MnoLwVBQX78TBA2P65dZbb03tm2MqaK6goGBqMK0CPJhJMwwarEeLw2i4hMtkCu526U12/aYaneqjvbWz4LwZn7WtnUwLLLXUUrM/xeNSzz0iAc/yUDA+KE3antKq/QsKCmYmplWATxUwNCu0uYItnJoMwV3wFxCwhDDBIYSnIxfAPh8LN6FV0lyIXKPmztspBAW9Ab1H2+dfNRQUFMwsDIUUi8+JMHZoWmwTDYQFZjbRBVORXigA4SYeK0S8eK8fRH7t0u82RDma5em2XNpN+5mCEJpoppenmZ8HWOAhzD03r0SA+30ryzHc7r4eEKeJeDdCwYvB0wT62nn0SYSCgskEHmFc8qiht+Y4LeN2cBgKAR4WGviO2fUgQ6yatuglzgcRpDcKodkevT43ICkClKzJGHgEjU/hfDtv33r5yHdQixoLCgqmDoQ2Rdx4DqOsYHIwFALc50YEIsssrIeC4QEBS3ATrD6vy605YaJgcRPYVoJb2ObzOkAP7ofGHqGgoGB4gU8Ipm+M4YLJw7R+Rhawd7qVyZg1Qc7aGyTCspSuPPpF1Kt5HHY0y9kUgp2euzYQfTevr3xPPxbi3UjTtdCprfQPRcEnXf6sZgc6sG6h+VlNM61OaXfCTPuMbKYhp5/yGdnww94Zfmzld9M+Z4z6DHrcThbGoqdh/IxsKAS4LTk33HDD1NFjCdhIE5OHuO42L50yUQE+qmi2USeG13yuzQU7wNlf265qYyHejTRdC+P1UwjNENb2Vfd/efvWy1efxfvt0hkv7W5QBPhwI6efIsCHD5RvbW7sPPnkk2lLatfWztiJ0Y6M0SeOo9Y/Ud5hFOAavzXo0Cv22muv1q9+9atWzcBb//Zv/zbrbsGw4D/+4z9a9eBsHXHEEa2zzz571t32aNKA85rRzr4/Vvjzn/+c4uv/f/3Xf21tv/32rWuuuab1/PPPp7ylMVY6E8W9997b2mqrrVJa6lowXMj7eMstt2zdf//9iRair3JayOMOK5rl3XXXXWfT/yjS35/+9KfEu//4xz+2br311tbf/u3ftmpjqfWqV72qtcIKK/zV+B12NPsnsMcee7QuvPDCWVfDgaGYA2dl+YTIavTxUJf3RaFu3K5DTTwpDcc5LbRri16e6x/eCxbCZFgHFrxI25wZrV1+O+64Y9r5zVxaQUHB8ML/HIxTx9e85jXpHB/xFcm73vWuWbEKJgNJgIdAnC5g3II9wMf61CvKlwtvx6awGS+0E04ldA4ErKCPJsP9RXHjPvetPheia3+C467n2i4oKBhu4A348Wtf+9r0rwY/iPIvin333XdWjILJwGwLXONj0u2+850shDDGvDFtVnjca4ZAcy6FZdgphAUpneazdoGVGWUKbdI9IT8XxBHapTNsIcoaZVe3qEMeL55H8FxcR/Ncg4Z+lE/0j/6iyPkdqR/I+F0qRcJzW64GTYwVeoU6URwcQzEsYXiCvsGb0EDBcCH6yCJX49i4XWWVVdI6FuPXdc6zId4pmDheUg+Kui3/skgE4wxMpIGjo8ZCpB1HP7RgafmzVjf59lq2XuMTIt7xDWO4dAl0aHoIIu1e85hKNAdQwHW78jfjEWwE7LHHHtv2ZyY5Ip1Iw7XQTDNHnjfwxIiPKTjfYYcdqhNOOCHt8a39CdkczbTHy6sd/Df+Ix/5SPojXfzmtGB4oD/0uf73D3xTK2UR23Ag6tKsUztMdJxOFcaip6Fdha7ABkNYH00h1Ss6dUw0UBx32mmnJMDDAu+EbuLk6DU+Af7d73431WP11VdPgqQI8KkT4BQmuzihBzTpl61+84px65umgG1Xr17gu/P3vve91cc+9rH0W9eC4QLeRLgZezb68UvfIsCHA1GXZp3aYaLjdKowFj0NrQBXQNYm68NxwQUXnPW4P3TqmGan77LLLomAg2F3+3636DW+Msw///zVYostlly4EIKbIM+FeLMuw4hoz2a7um5X/ma86RDg4L6++M1vfpPogwXm+1L3crSrVy94+OGHU/rxb/dm+gXTC4IaDRp3lCyMtAjw4UDUpVmndpjoOJ0qjEVPwyjAX2puyXew/gjl+73VVlstFTgCZkZoISwVi8rE8z//+c/p/nhhLEQaEWC8+IHme+2C8hrghIE6stzURXAvrh3Fd8+198CGJZ6Z+xW0gSCe+OrtyFJswntxzPOiHLmWjnu2jc2fSa/5jqPwu9/9Lh3Fifcd1THOHePaP6GlE/UZZqhTHnK6UYdXvvKVyfK644470rfo7qlnuNoj/lihE7S9eNpKm0u/hOkL7egBTYPFUgXDA/0Tx04h0Lwu6B8vNe/8lre8pTrttNNSoxJILBHW1tFHH12dcsopaRERl/KDDz6YGJwQINwmirwz87T7hTRYbeFqtbrZPZotBkGgQzBt+XsuPnd5E567L3iHsJSWd1iFTbjPYnjsscfS/CoQ+D6ziHyUgWCCF154IaWpbJ7LT7lCMOsTn2d4R7rKIR6NXZw4J+SVTzyWsnSaLv9RRPTTFVdcUZ199tnVGWeckerNY8NrVDCzkfOHgoKC/8ZLL7/88mR1s2ZYhG9605uqd7zjHdV73vOear311quWXnrp9D3flVdemXbg8vzkk09O9wYFA3SQg5T1SVh+8YtfrG688cZUN8IxrFFMXyBU3Scgov4EZhNW5j/77LPVU089lYSvwBLQBlZFQ9RBkCZBwwX/ute9Lm0tSImQDuEaigXB+/jjj6f9xSkCBDUBrZzhGiSAKVnKB9FOFAN5i0sBYEUS4qFgqJ/jINt1ukBJ1H6E9vHHH58EuZ3atJ/7wwZ90C70i0Gl0y+mO38IOtbn/WC6y19QMBl4qW9tzfOaB/Td3pvf/OY0/zv33HMnl/oaa6yR5qi/+tWvJsZ57bXXJuGyxx57JLf7MLq0WJ+HHnpodcghh6R5C/VSTi5YXoXtt98+KSMx1/TNb34zbdt55JFHVkcccUS6l+OWW26p3ve+91Vf//rX0/X1119fnXrqqUmRkUc7WC0bVvq73/3u6te//vXsT7EIVueXXHJJteaaa1af+cxnqt12261aYYUV0p7w3iOYd99992rFFVdMe48vvPDCyatAkJsvM+2hT2z/6f7b3/72ND/sPe5lfXbwwQf3zfCGCRSfYODWZ3zhC19I/XTmmWfO7sOC7oAeRk2IUYgngpkwBgoK2uGlwQBZi/vss0/afJ6lw/LLmSOBw0qcb7750i5ZBN6SSy5ZbbvtttVFF12UmELMOWO2BAmrsB08b4YYpPH+RAL4NA1YbATZ3XffnTYVIAx9ksTzIC9WuIUxFBnxFlpooXRf3aNMN998c1q45X1tQymg4BC8VqlHngGWsboT1tzd3mEpyksbBQPlQmf1WxRB+PIW3HnnnUnh8K54Vl/bJ56yMO+881Z77rlnch1TCnhDKCKvfvWrU2DN8zzI45e//GUqH+s8EPnm7ZQfxwrNvqEMhSBQV14FecY8fuQD4rk3ETSnNSxg0oeUTmsV1FWeyic066mNgxaVp+llcc9z3o+oa7+IvPM2CLjXbVAebRv0Ml7oBPXTRzm6fT+e5/GbYdCIfstD9Iv8KHT6Sj9GGdQRzwkF1lGd8zhjhYKJoV1/aXf8Tl8127m0++DQF7cyOAgYu+2cc845SfBsvvnmiZFi7gaOQGjpzOnAAgsskMqJiMA8/w033JAUE+5l5fScMLSy0LSB51tvvfVsBcYc9qc+9akUx7fI6oJRELg777xzsgBt1t+EtpEOYDwEPgFLuAaBI2DPlMGuY9zodjF65zvfmdYfiPP6178+ucUpFz5z+vnPf57+CDbPPPMkBUQa/tqlfD6xYtFzw3/rW99KnhRMjvs9EHlPFMqk7NLyK9iYGoi29cy1ttKWg4b0KT/77bdfalueoO222272Go0oG7j2X2J9QiDGMwxGCCaPVpXf+XRDv5myWWKJJcb08PQC6VHA0bz6jxqaNGscqQ9E/6kjWgvFW3+Lo08HQfMF3UOfULr102SM/4L/Rt+j2eAwaHTWiSeemL7lZo1zLRtEBBPQhqca8g4tj9UKynTfffcl97MFeYC5g0V6BCRrjmcBCH5EyBL62te+lt4XpLn//vsna50rnhsbMIkI2sRCQHPflBsCRpk8w1Ci7WL+VjmkC46LLrpoOkrHM+8496cfC9W42TfddNNqgw02SIqTQcLFvtRSS6XycKlTIAwgZR40KAmEtjoJt912W/pLFG+AurmnvJMhDLVL0NQ//MM/pD6jRK677rqpzbWHPnzggQdSOUNgKcs666xTbbPNNqkdPYu+aEIeeegVzfcjdAt9tsgiiyTFTB2b7/eanjoS3hQv/dIrJpr/IBBCWL6mTyy6veyyy5LS/eijj1a/+tWvZnuAIqCT3IMRmI7yz0lAv8Ybhbnd+CoYHPoS4DrIACE4MBnM3ByswYR5Y6LmoM3ThpCcSigf4cj6JPAIy0svvTTNY9txS/k8J6BtCsGypXhwORPOXK40eJYb17V5V4v5CHXz6Kxflh/3/EEHHTQr178AY/AehkmgCvJRDtYphFaqDAQMN3cQurIop/ZVBu0XFob/63rX7xTDmtL25tfNjfuP9uc///kkzJdddtkXMetgaoPAM888k+bneTUIBe1pfQTFSFAHzFT5Y/HdoKAO2kRQ/7gmmE09UKzQIFqkrFmI+aEPfSj1q+kITP9tb3tbmgLheXFNkCuvdnY+1WgKE22G1tAxJtgtpNMcb64JsRDe+iQwVUJMPnnoFU26Nc2F7+iz5557LtGc8ctb5tfExibPFEXWOOmEiZav4MV44okn0lSlTz4LJhd/8zn7R/aIIHIDi0DBSEPTxRRZRZ4ZWKwji8RYaRg/YWNQYSwEmnlbz1iV0hGk0xy0vQKzInwJbsLRZ1gWoRHOBj3LmEVOyGP6hCPXs8VnK620UlrQRgEhGMxB+w7ZAr5lllmm2nvvvZPb+6677kqLzCgvOUK4yDfaB+MkhGM+VxyCG+OxotpziwnlTTgCy93OYBa3USAwYWsVCCOf91lcpy6sT2lzuV944YXpD0DWJwSzbjL1Ztu6zkMT+kMdfvjDH6YyUBAIF+mbNmHNqiuFZLnllksDWFsZwGjAc0xXW3jHtXPKh/ycj4dmmcSXPwStxNFUhbaiwFifgKH7EkA/owX1ICApH6YreGikp69NjaDNaLex0K6NAp6hPeOBInHTTTelPLSPa+X0TB4UhsjLewSStrHWRHxWJm+MKRR0wBoXT3lj/IiHjtwT0IGjMsibZ0k66MEUTSjfoBziiR/3lNF1QBn1U7Sv8jqGMqDM8pRuvGvqSXvqi7wtI49A83o8yB+MUZ6etdZaK/Wz8YLnCL6m0VaUMHRJOSPIjXNKeHxaqU7RDs36tkMv5ewHpsWMYWXSr53KM2zQhnHkDcFL8carrroqfanDUxjQlhFGBVFWvMzULLobFrykHhg9q5ztXnFPQIAGPCLE0A10c5NcXDRicRwxUhCfALcQTkP5BIwFO5EOlifGZovMRx55JAkcC74sRsMgCWT3fRZG+CI2gxqzJOgxNgyTsoHxYeqI06dbLDd1I6SUk5DIBWS0TX5PXaUpD+USnGuXlVdeOa0kx7QxaBa7dmOB8Q5wg2tPC7diPlvZ77333hSfW1h60jdYWPrSCES/QLRpr20rbXXmnjf3vOWWW862ELU1dzW3JsZplb9yeqY82kk9rrnmmtSOFgxiVupEmVH2ThivvFG3OLYDgS0vX05g8ptttlnqH8LFe8pPj/UDBpZd3nfQzL+b9tO/0qQIWnCIjnhHfvrTnyYPjvUKBJFpGO3G/Y/euPcpYJgeYWSqhEVJGaUIW3Nhuko6GKS6oSGffVKuoq8wUsplCFiMR9oQQls9eSpYS9LUDsaIMXHUUUfNpiuKz0MPPZTGMI8GJZInCyPj9TF+KLgWYhpD1pNQLJVJ3XmUoEl/3bRjIPrEVA0PlLy1cSjEELQevIWybjzwmt16661pTPvaw5c1xpi6iduknX76uxc08xvlndhyUCh5udAt2tFuFGXGUtTZvUG356AxFj0YhxTFYdqJTWF7Rj2Yxgz1oEgBaoadfvZeM4z0w3dHz9wLOK+ZR3oekM5EUDOs2WWohW66hihLPIv7UDOndKwFfDrWAiod1UE85fN+LXhaNVNs/dM//VOK49iu/t6JEPekVTOVdM+7NbGnH99LQ7pRtogrn4B7yiAP8aWRw7PmPcjLFGXsFd6F4447rnXeeeelsoLyytN1tAO4F88g7tcWeatWOFoHHXRQq1aeZqcT5RorjIeIE3VsF5RFXuIpU9wP3H777a0PfvCDKV608XihE6Sjn/faa69WLZxbtSXYqq3hRIu18tJ6+OGHW7Wi06otwlZtPac0l1122dYPfvCDVq3stGqBmcq76qqrtmrGntKsFYHWxhtvnOI+//zzrVo4t2oFKbXjOeecM5teo83RluFdK4C2Sm7NM888qY8gaEU5a6uiVQvB1i677JLKUisUiSZrBSHFrS3e1o477pjGhXJ5ViuQqTy1Mpfi7Lfffq1aMKb0xHv961/fqhl3KkOtNKS88nbvth1zxLubb755Kpv3Y3xoq6iTOMoRcK2dPD/xxBNbG220UatWOmaXSz9F2hGifP2Usxs0068VqNn9l5d91BA8Dd3VxkWrVpJa22yzTapj3rbDjrxv8vLWBkDrwgsvnHU1HOh7EdtYoK2EBsyyiJWINLKweGiaLAMhrAbnLLRBoG70ZOFJk0UdGlQs6qoHSYqjXDVTS5o8a7YW0KmcrpVdGuKAc+9Li9YvvrIL3UC9paVtHJVDXoJ85adMNVNJcVgIzpWPJRuaubJb+R3lAs+iPs4nC/IAZQD9qYzKrj2cQ/S/+IK662OWr4V99hnwKaJP+5rljTwGCXnoP/0aZYtjjnb3+oW0TLPoE1azeXfeJdMvrFSeAH2MltCUT+IspmTdsrqD/niMWOxgekQba3dtZ6MitGAqQD7aLmjBdIrfOqqzPLg1w1pFc8qnX3iQ5OOLEp4TngDp/+xnP0txeVZ8IWGNA0+KdJWJ1c59LXDN+3ICffJgGCfq60sIHqvJhrbK6xTjRr3c4ylDfz4Fjc9HfY5p+iq8WgUTg7ZGz7x/pi14fHhfeI4KJg99cSwMZ7wQMFDyIzgXBzMx8CCEl2cYUJ5GrwhBKU0hBF0IEsFgj3sh1JUHMwyhqize90waGBPEu4FIvxuIS+ArA8bKfSlf7j2uPvXGaKKcykMwcltHvlG2gHgYrvvqI494X4Bmv/SKeFd6zkNpkV/eHtoKxFEmIfJW5iiPT/IwT5++mcvXFpF23k9jhRzeieNYAWPRf9radd5+EPeFZv9CPIvQCRRH6RAk2sqUkXPrJwh1ax5ikZW6g/la0w/x+SMBRPkk1Ln+zSlHuU23mAsW37wugeqZQLkS0I00ufEtzrQWRduCPOWhfyjN2oeQC+GvzNpEOspqcSDhZ30IwW46Sv2kT5EQl7s6FDtt/fzzzyda1l6Rb/Rdt+3YK6SJ/vP+hvweUKJMWym7RajqrezKpw0no2wzFTEm0UMcKerWHZx//vmz70O0a7xTMHG8mJNNE/785z8nBqJTY7DPJDSJVR0pDuZAzYObJ8JwETtGM4zIBx0m57xfRkxbx0yte2DVmZd0D8MPITXKoHhRZiiAvCehzFDUzAvrYwsT0YB+1wZ25NOm3iVgHAlmlqJ5aQLYvLQ2YsmbZyZ40I6FatE32hV9EUgWkflWngJAGVAe0MZoTZs7Eujm35U5vFDOo29Z4ea/wT3PvEMI8qSwxn15EB4Yz2JhXSh1wwTtQ7hb3EdRQn/KHh7AaMuC/hB8IULB5GFaueVM6eCcWNuFJjC20PgxVi5KcD2MCkxeh6iTcrarWzfAPClswA1slbhdAAknbTPdiDpG6BXqQCDYcEdd/UfAIjDCnDDW9xZQOvLCsFb32muv5IVh3bKqpeGrDYv/rGK/+uqr0xayXNzc2axqfUAhYLUTugQ64cmCdh3WpGttG6BMgPeVy3N5oT8WNwXBCnbxLFJjeesn3gCL1XgDCHUKmIWNpgS44ini4IsDCz6lpTyTgX77BrRFfN6oXspuUZ420ydTjbweM0GBLZg69PUZ2aDh86lVV101aesY16CYeHOAdzvg+32vW2CU6orJs2xYSpiK4FnkN1a+ncoz0edjwWpeFl6scu+X2WCS3MwsQgLOqmBfIvhqwIrqZrrN8vZb/rHe0wfyJwz7TTuH+qFhXz+woglD/xVA4/CDH/wgWX0EBpe0bX99EkhYc7ETmOa7WeHaiMXOUmcxc7sT6GiHVa6tWJLgXL6Ek3oQ0ASo6/DsRP2CzrjiCXDxKAK+brB6nRC34lbfmONWByvbrQD3FYRyUz7FUV9fScQnRD7hQyvSJNzNM0e+jnHeC5QXlFeZzK0bL6GM9AJtJD1HbUaB1K6UK3P3Of31U9Zeod/jaxLlatL/TEGzLaeibQeBKOeM+YxsUIisfffsExRze6yImLsqmB5gvOFudY6AMTtz1oSKT8EmMviaJCctVqiNOHxCZUFVjqZXYqIDv/n+j3/842RRnn322bOZe45+8pOG9xwjTBY6lS/ybsaL63g+mWWEyK957AZBAz4jsw9CbFSUu/p7RdSXgiMd0xWUl+222y4pB2hhMtBsZ58n2fjKlIpnoybAe6WbfvtrqtCsT5R3GD8jGwoBzjLhfiMcuFbNSwXEidAJTcKI6+a7ndLqNp0mxIs4ju3SiTgEI1BWDFgWVbwb7zXfb+bfjB9oXjeRP5dGhIDymMME7n2MDIPj9rVwauONN+6Yx3gYqx6EuPlUG+7IkxLhOIoCPBBt20xzkOhUvsnMuxdEOZvHbpALcPP6NgwiwFng/Qq8ZrvwcPDC2A+AhU+wE6qDRjNfgsGe95FXEeDTi2Z9orxFgI8Bi7lsZsCVZ7OJ/NMTxROaTLwdmoQfDd+sYqe0uk2nCfEijjzGSsdiGa5oz7kquRhjBTDEexE/MFY9xspnLOTPpSnkbcKVF9YHS4SyoW/sCW8ltfnCiaBZD+UJq99mJTZ+sLEFtzHFrslEO9WvE5rvFwE+NYhyNo/dIOgzF+DGjP5q0n+3iHahCCgLure+wMp00zkgTi/l7AbN/uB5shskOpfXoPObbPRKX8Nev2Z9orwEuCmW2JhoGDAUAtyWoXaC8n0w5EVyLuQCZiyMJciaVeyUVrfpNCFexJHHeOkQjBAWhOsoV7wX8QNj1WOsfMZC/lyaQt4m0ssFuPjuWcBkYZaf1kwEzXrwPsiflS+fD3/4w2nHL5qu67zdmnXtB832KQJ8ahDlbB67QdDnZAjwXEmUpjUIvIGm9YImB4lmf5hCtEtfEeDDgWZ9orzDKMAHS5l9woKmGEC5INFwBo9BaiB1CuLlwbvxfh7avZuHZvxIp5sQ7+TpxLMYnO7R9gX3Id5p916EuB+h3/JGOSK4l7/vnn4QIg7EuxMVCJFmpEuJ0RaRNsbpRzG244z6hIIT7wwS0sS4WWIQdR9EiLaK+s7JIaBNhHbt1S4E4r1IC+1D3I/QLaJchHW8ixZ5f2y7+r3vfW/2anXudXwK8ryEXhH5RlDHoD3Xo4ZmfTqFYUe78upnit6wlX8oBHjBnIt2A2K++eZLbvrDDz88XTcZ5aAHEQYaq70hBm4JwxEIt3yKabKBFlhbPpGLPCmYEEJ8kEDblBF1nao6FswMFAFeMJTgpsc0LWjDNDE21rhjP1bPeODCZ2nZxISgCE9FhKZAGbbQCe3eGaWg39ECIWddxGSDtW0bWJvrWLRpUa1yEOyOg4Y0wwM1qO2kCyYHk9H/E8FQzIFbxMFtagU6Bh2NNGyN1ampxipv871hqleUbby6Ka9gntgCw6233nqgdRirfax6tyrY3LQ9uDE59EGoTgTNstuH3Jy7XcUw66aVNdH8Jhud+qIT3Q471I8Qt5DSxiv+fuZ7ecj5RaBTezTRrn2kQamzNscf43wpE5+3jkWv/cKeAHbZo6BY1Opz2oLhgj73+az/Dtj5cFgw1AI8MNEBMmgMegBPNzqRQNTPrzEJcPtiT0WdzXvbQOTMM89MgYVs9f5ESbZZdv+kx6Qtjoo5zxzD3r9NBcMYyjEEQ3xCUH51RA/2zjdHzUKORWzN/plof0V7aUcb1lAa/JQjtnuWft6mE83vQx/6UPrxh01vfI2hngVTD33aDEBxBLsS4hN+TjQsKAK8DzSbbNjK1ys6kUDUb6oFOGBmLBTbc9ojXL4TJdlm2W0NakNCO5qZB48BO6og2HIMwRCfEExxWFzGO4JXWLVNgLs/GQIcos3wI5942XWONS4/yNt0ovnZhc26D1vp8jKpa8H0obmRmJ0aF1lkkbRbonUR/kMwLCgCvA80m2zYytcrOpFA1G86BDj405W90jfYYIP0q82Jkmyz7P5KZXrAzzm4MZsW7LD376jTXyeYkw6mussuuyQraLIFOOR0xm1qrwo/oWl6gSaaH9qmJIzloi+YWjTbnxGBziiO1kWUz8gKRgpB0I7TwVwMIDu0nXfeeWkf7oki6hGBICC4BeCuzQMGPcyhCXWihETQfqMcME+Lu3gWmt6FyUS0raNthH0VYV1GO0SbO/YKFjfhbfqmqTwWTD/wheAT7cbbdKII8AEAkwGWQpyby4rB7JiHYUMIgrHCdMP/0P0kw8p0W06aszaYYkB1W8Zm+8c1t7m09NkgBIQ0cwHaa0BDyhLBdTNOlF1oh7z/egm54pKjXdxeQ6RLIDdDnm8zYKCmNcQjyPO6dxMmAuWWhoVlpnBMtViXgU480z/GPfoRL/qnE/LymRoQ7IWhr/M26ydMFNKItSBRrzxMFHlZRyGoc9DiVCqQ3aAI8AEAsfvrlJ/YP/vss2kQtlvNPKqIQRuCY7pgF6Qtt9wyrRa3uAhjjwFloHWLYEQRhg0ElblQdZusT5fGAoYtX8dcwM7JIKTR2lprrZV2aTvssMPSH+XiWQjs6Kfx6GpYaS6HOqE/5UQHBcOLIsAHAERuZaJfYfqF5KWXXpp+AsI1NuyDdRSAQVKKrJGwWvfUU09NltD555+f2t4zmEpBN5lgZVpx73/bsSf3VIGgwrxDOYpNVOZkaAs0ph38r/3cc89Ni5lOOumk5PrOrTTKjmNT2XU+KryA0igYW7G5UcFwogjwAeDqq6+u7rnnnuTmE3yOFCtKabMFEwMGmQvnBRdcsPr2t79dfec730nfpPN8zCQhTmDceeedadHM7bffPuvu1EA7RqCAKku+KnoQ7ZsLs+kSar3kSyjnWz07R3+8QBZ0PvbYY7OfQdBrCPHpqmO/MCXw61//Om0nG3UqGE4UAT4AvOpVr0oMLyynV7/61WnODPFjgAUTA2bIqgkQKNrWZ19W79r2cq+99kqMlJVEafKOqQ3TGGFF5kJDCEYLmHQeZyKQjvIqR7gg0Ufcs6fyM888k67dVz5B3u4JPlVBV6EAuictR3GdK7t3MNwm4nm0h6O83JOGa3BEt+K4Hy5zIdK3J32855i/51pQJ8+FqEekCaaYxMunlaKt49gt1D8UjEjPtTJF+Rylq1yO3YSxEM/lF/umy8vmK35CYlrHH8x8bhTlUe9YlBZtFPU3vRbX+fN4L/KL0A/0v3fj2At4FVZbbbW0eRLaysvSLuSI66hTXrepQpQZ0EVe1rg/HpplbwaQTtBcQF82rycbRYAPAD5vWnHFFdM5q5tAIbgNRoywYHDIByGGutRSS1XXXXdd2pnLSuEddtgh7dT1m9/8Jj3nAuQO1C/6Qp80A4jHsoq5vzz0CkIDMELMxKDPFTlCYIEFFkjn0lc+ceM9SmDAe973KV0wBIJBXbyr/N7FOFyHQHBOUIjnuTycRx7hHXJUb/XPmU9AWv5A5yht6YrnXPu6L8gDMDX5qLc07SxG4MqD8PKONPLQK+add95UBvkCb4Wd9ChzeTm1TQhccF8Z4vlYoRNyr4QpM/T2hje8If2Ah0fIb3cfeOCBtO2rumtnCptviQl6cB+0V9BgN3l3grpF3xDe+iLaqVt4n2dh8cUXfxHddoOgB0ADQVO9lmEiQIvqEG076Lytc9KfwtNPP53GGWVWftpdf0O7fu2WxrpF+Q68D7RrMp2mMzEqq6YhOlD58zoMW306QZ+oS/xOdJtttpmWOkS7N9s/HygWF3E7c6uz+qxL8FtSzNS6BP2jPuJicM5t5GJenUWPsRJqOfqpK0FBgJ1zzjnVGmuskX6Vq5zoRB6xp3fEI7QJG8xBXMyPUkIZ3G677VJ5Q+BKB8NwjmFgHCFAA5jKlVdembZ/NK5OPPHEaqONNkrvmeZRBvWSFlcpQSSd6Gtt4yiAZ4SB5/KMVcruSU89tLe8lEV8eYmvnOqoTOrYbM9O7RvPpeVLBN+AG2tWg997773pmfzWX3/99JWCTX/0NeET9QxBRKBEncYqR/N+k95yKNMLL7yQvG7SRkvWLfBa/PKXv0z5qrPzCy+8MOXtHe298cYbp+/LL7nkkurQQw9NNOHZWOXqFZQnfYXme4F++v73v1/tv//+6Ve7lL8cncoTCp4+j7aLd1z3W59uQXmXtxB9naPf/H3Kuvrqq88W2MaAo3GJ/o1hR94LC27DqANx1X3Qe/kXAd4Hmk2GYDEpnZQzqCDWZvxhq08n6BMDYVgFuLLkbW4g2WzDHCWGyrVu0BnYjpi7fkJvhM/LXvay6rLLLkvzmgQSppej17oGDfvsiJuVNWOnrS984QuJMdp73dawrEbbMwLrcYkllqhuuOGGJGg33HDDJMhZbLbalI61Fnal84wwYE1ba/Ha1752tpISkM673vWuxFz0nbRYigSN8oVlZPMaQt5mIr/97W/TwjkbVVBogHdJm0Wdbr311iSw/GSGRUn4EKoEpbUfym7rUUoB17JvpzEyZQglwHnepp3aN54rg7wsGOWu9rvPK664Ij0DnxpaN0CR0OfahvDRNpQoigXFSN9DM9+4bt5v0lsT0Z7yElf95K0caBFfUE59qA3kr6z+aa6P0ATFY1ACXJ7Kcf/996ejfdx7gfwuvvjiRGsUEWXO0ak86i/vAw44IB3RGEW613r0i5tvvjl5RNB6KL05+i1HCPDNN9/8RWloH2PE+NHnxhn6fPLJJ5MxZ/wuu+yyqS/QwkCFeJ3otGOPPfZo1UwhndeafzqOEupB96Iw01ATaDp++ctfbp111lnTXsdoZ+Xqpizi1Iy7VVskrV//+teta6+9tvWd73yndfnll7cuvfTSVm15t975zne2au05hYlCXsp2xhlntGqB1aoHdirDNddc03rrW9+aaFyer3nNa1J8tF8z/1bNLFs1A2jdd999Kc7iiy/eOvLII1u14tGqlYFWrWCkdJ566qnWy1/+8lQf5a2FdasW5q2aWaX0xDn99NNbtcAieVq1FZiO0Y/i1QI3hVtuuaVVM7jWz3/+85Teueee26qVmtbnPve5FHeLLbZI1/fcc0+rViDSvZqJJTqQXs3UWgsuuGC6r0zrrLNOOn/ooYdaK6ywQjqXj/rkwbsRlHe8EBC3VoZatdWd6h3P9GWtOLR23nnndK+2dlN7PPPMM6ltaiWiVQv9xGceeeSR1D/K9Ic//CHFa5Zhooh05BF8Da3VClurFmatWsCm8msHUK5aAKTzdu3RD9C1Pl9sscVSu/z0pz9N5TnwwANbm222Wau2/FM8ZdC3taLY2nHHHVu1opHioZ+FF144xbnyyitT2T/+8Y+nctbCqVUrnq1PfvKTrdr4elG/CuirFtit2gJu1UpyokPQ7vn40j/rrrtu6+ijj059tPbaa7c23XTTVm3Vpn5Rd31bK7dpHNRKTmrP7bbbrrX++uu3agGZ6LdWaNNYM86c1wpE64Mf/GCrViBSPkFnEfpt31122aV1/vnnd3wnnqvrHXfc0aoFeGvPPfdM4ziHOmrrvCztQiDO82dFgA8AeYMKMw2IHkZVgAcMlmAg3kNr7tVWZau27NJ5CMGJINI5++yzW7WmnvLCvAjnoPNzzjmnVVvF6dz9RRddNAnsn/3sZ+kaasspMSIMoLaIUtmlI23CEWO87bbbUvqYHogTdcBcCVUC/OSTT5593zGYGQYYerx0MBXCEIOsrehWbTW23vzmN6fn8r7zzjtbr3/96xOjpwhdcMEFKWjLz372s6m+GBUB4L70grFHiLwjyHe8EBC3nQB3JBTlBfIA8cWjmHimzNqTQCPII06TiQ4KkV70WQjp6Ef5yp8gHKQAl5d+IkAJv+eff771+OOPJ3r68Y9/nJSa2jptXXfddSn9hRZaKI0BCqQ+UzZHCqZyabctt9wypSM+obvPPvukvCgEzf5Fv5RCSunf//3fp/DYY4+9qC7KSBGYa665Er15h5LhPUohGqKEbLPNNq2nn346KWVzzz13EtQUjtqKbT3wwAOtr33ta0nwa0s0sP3226f6yO/hhx9OeWnTPES7RugW3QpwZQkadI72vLfmmmum8nsmDc8ibrtyRQB9AvFuhL+eICgoGBH06gozH8nNWRN+cmdx57rnGK7dQUBa9cBMactHOeULFjftu+++1Y033pjce8Clxn1vrtL8LvdbzTiTO46732IZLm1pSVP5zfXXwii59CzeM98nT65c8YB7/pvf/GaaV8+nPZQvEHWWZ81o0mI5rnwuYAvtXJtSqIVOKpO5XK5C83wx12cuV5qmwbxjvp3rlCu+Zkwp/SaUJcJEoWzaThtoM+2jbeXNbW6qBEw9WJPApc+9y7Wr/kEPg0bUT/rcuNGO+jDy1Wc5BtEe8rIATZ/4bp3LHo1ZXGfaw1/P9Cu6kJ/pHXPxysQ9rA19RaOcppauueaaqhY8ySVdC5DUnqbT0CDXv3rkwfQVGve+KSpl4ErmPq4FUaJRZfNfBfmYYtJ/Sy65ZFoEaOpLOrUSmOL4pO2HP/xh9ZnPfCZNByyzzDKJ5o0VLn5llJc01E19TRkpJ5qdauhn7aquzgVTJaYlaoU7tbE1HNoAPWj38fodLeMf2q8ZrwjwghkNjDkYSwhTAwIjase0B8XICQ8DF4KJ2OBns802Szt5GdAYDpgDNZjNnRGKIayV01ypuV6C31wapmDPAUzNRiLSIqQB45YOZoZBu/b/YgzNe+5rh5wJOBdPHOXBzJXDXDJgLgJ47s9ZGPxZZ52VGDEFQ1nMOcvbe0cffXRagEc4jceYeoH2aBeAkFC/F154YfbKawwvBKZnobhRTMyjazPz99YlaJdc0WiXj9Atmu9QLJw7CsoXbaq8g2qjgLpoE/kI0vdJotX7F154YVotry30tfny66+/Ps3H21/B3gqEvQVw6NZaCnSr3KCtpGFxpU8dbajUhPbec889q29961tpDcR3v/vdlKb+8H7UH32jO0LYtfvypABQvCxS9PMQgprytfPOOyflUlv6oY06PProo2khWUB9CG5xKBzyzTHotm4HZYj6yE89o/5+h+unOBQfc+pBI52gjmi4qfAVAT4A6KQ8FEwuem3vPJ4BE8zdOSYAIWzca4Ze4R15sAJYpBao+eOZe4SdBU0sVJY1y5vws8CJVu5dQhxTswjGojGC8oQTTkhxWSVWOVt05scuym/hGIRlAxgGRh6KBOHruesQHuBc3S08s+KYZerTPJaQuPJ44oknEgPBxDFWlj8GLY6/uF1++eWprtKxcE09MV5xCRKIPpBf9AXE/fFCN5AXK0+QR/SbsoTioj4WLKqL8wsuuCDV2dcH4siL8Bmr38e6nyOex1G+guv8XF7KGcK9+d5EQClQD4JDetqAUKEAyu8jH/lIqr972o0QtEDSQjMCGZ0oGzrgTfErVV4WFqBgYSjF8bjjjktHQld8bQjyQ3/rrrtu8vwQ0uorr6i3PMSTHgVSuwB6cU6IE8SUhbDcldn7lDIK5B577FFdddVVSRlTV5AWT1JAfG0gz7GU9kFD3eUTPMbYc0R7YEGlnfyU1d/1KOwWj/I8hEKnDbSRI/rUhjxqvrrwPEIR4AUzGoi8FwxigGMWBOliiy1WHXjggWkgYoKsb0wPw7RC/ctf/nIS4h//+MfToOaCZhVaZc1SZPlwUT/00EPJ8jDQuRy5JLk8ueQILJvYRL6YaC918A6mTlngEmXZ+G2sMvvzlnxYbFz+IC7XM68AZuurBEwIMxJY5OH6hGCsE4U6YWaC8wjt0Kn+mKGygtX0P//5z5M3w3vBdNuFbtHpnbiv7ScDBCNhSegde+yxSQnkumUJo0M0h07uuOOO5M1hJROSb3/729PmLYSnvieoxfM5oncpbrxFFEb0ycvCcpdf9M1YyNuEIBbXtA2vCQUx4OsFCi3w5KA1/2E3Foyda6+9NnkMjBNuesoIpVP91IHC/OCDD6axYTW6fIxFQl+fy3sYoF1NQ6ifMaytKU8UJV4hX5+YJvAHRgq/NmYImEJAox/4wAf+4rmrX/prH8gUA3HQ2EMbnSzCLugP+oQgxAhokz6J6FUwDjNYuzYDIawMcIMrNNx+6hntpa3M17FECA2D0OctaB1T4RpcZZVVkrA0//ee97wn5e0Zbd09TNK7BKN/UftkzH2udZY6YY5ZB4NyNMBzKE8O6cc9HgFMRP1ZYN41DjF/loTyY+qOhLH2MT7NpVJIMPAQ0tKVnnI6B/GdRzvmx17aVnkFjFy9uYSVtZs0Iq8IyqudQZp+UoJZ8iJod/0EzbTjunm/HbqJE6AMKYN8lWesfLuFNmcVox1jlqKF4asbYUwQe8bi04fon7ubckhoEuqEw1vf+tak2PlmXXpc0hSAlVZaKXmECF+Chmue5RjWYzv+HfQG6IFgpTCGVWzOnvBWJsqqOP57oAyUR59eKreyEGjyofT6M6ExYN8HNIqGKcjm9ym/FEzjK8ZI9G2ObtuXl8IeA0svvXTPfZJDedCfuqNh8/Y+Kd1iiy1SP7kmqPEHRoCNqijx4lNQ8AxjwDjTeNOOUVuFXhPfi0In9Bp/2FAzhHQcllXovaLZ/uqTByt2a+aQzutBPuut/vEf//GX1cW1EEznUDPAtPIWfXumHEHrce6+FdPgPOJbYe66Fo4pHWW0ajfy8Bz+9Kc/paN38qAMeQDvClb01gw33QN5Rr7S9qlVzeDTPe/Ge1bWimPculYm9YA4ug/ixXuexfNe4F35Ww1tJXW0STtEHkLkG20hgE+OpCeOe1al+5TQSuiIF+9GyNMV2sH95ntjhchn9913n/3lgfvd5DMegh4g0gP1DT4LaCl/po8D+h6iXOLpY+UFeeTxgyZzGokQ9YyAdgCtB806l4dn0gg4l27QpSBv6Ygv/YgfXxt45n4eL+K47zoP3SJWoUcaY6GZfh7y9sivlU/dopzKHn3giwAr2O++++70DkR6xdTtAXW7vUiTzK/rhk/uHRok0LLiON57BZMP2vJ4IbcYXE8UkV5Y0/UgTVY0bduzyDes1Dj3LFZMu+d992LukNUZ7t+YV5NmuAZZzo5NSCMP9cBP2ry5Qm5G73M51kxjdpnlJ235sLqcR3lBmaSlvI5RxoA8lM8x7ufPJ0L/0onQDvnzdnG0UbRzlI+lw5q0uEjbgHhCjNcIgeY15HnGeTME4loZ9N2gkKcV+clD/7HCo9z6FpzrX30f9QlLlTsdpKOPpSGO8zy+a3FzGglEPSOIqzzi8w5II+aHlV1Z3BOc8wTJK4KySSfyjvjS8L4yoEnnjnmcQSDKNhaa9c2D8kSIa+VVL+PQEbRR9IFV67wVLG7vwOz00lVBT4gOjIDxYXJW/HJt+uRCx3imQ5rxC4YLBgKGom9igEwE+n4yEIM2QjABoRd4r9b2E2P0CY9Pw8x/YnKR1iDotNdyTTWin0LpsQrbdqx2pjPHa+xqpyYGPY5nEk+INg26nG4aaOY/iPIEr5jsfos8miFHEeATQBCo7xD/+Me//G2JFmi1IMvbtYUVBcMN/RTIz2cqMCDCG2j/LHvzn2HJez7MCAur274SLw9NSMt4NV9KCTeWWTwU83Zzpt2g27LNRMzJdZ8K5MK8CPAB4F9nLY7gDiKwLfbADENTKygYFjSFM8FNYLE4fVYUwnHYMUghob7/9m//lo4WCfrEx2IubZEjxvJYikBBwVSjCPAeEAO3OYB9ymCFpAFvXse3k56zZsxZjvVewfSg2R8xF2cdQ8xB9YtcOw5EnzePIB6hGvOtYQHn6YwXQHqETzeBm9xRXQUwF2qVe3y/mpdvPEQZlDcPUa4mmvHzOo8XwJFFrPygDtJq5+LOkbf5WAGM0ygXIe4HSz7QQQ+sc/mFQI96jBU6oZm/PNRNf6hnlGOQIW/Pds8nM+R5twvt3hkvTPT98YL09HeMD8F9YKSZm0YL0Xf9oJt3I07HUBNcZ4qbZNjVxzewrAEN2NR8hw3RZHEMhmj3K3Ph7lsIox4aGdyL80DzeliBgNVxuv9GNlmwTaNvW/21yh/LJgL9HGGs/s7v5/EDvbZtL/GDGYWiEoxLGpHORMvTCXna3cBY8o5vy31jbjMLm4wol3HXyc3dzK9T/sGDfNJjAZFPrbQRK11ezfaYaPv4ntnuXJQoAqJZvomkH2nlaXZKr9PzTuVrPm9eN9Fr/Trl36k8TeTxxRVinICx4p6d4Gxd7HOvEOLTjSLA+0DeZM4F5c5XOupcnRzXjp0IbViBmGeyALcbl12drF2I1bD9Iugh2ixHtFnednn8QPO9Tui1LwghbnMw3UPxDGVzEOXphDztbsAzQHhy8ftHtQ09CHCYDAEO0jWtwLtmD/H4FjpWOeeY6FiwcY8tapWL9df0Ak0k/ahrXudO6XV63my/Zvzm8+Z1E73Wr1P+ncrTRB5f3AgBvB3fszjZpkUUukGPiX5RBHgfaDaZwY4IzHtH57sWIm7cy9G8HlbMdAHu0z+7omHU8WlNv4j+H6+/8/t5/ECvbdtr/LxscczvTbQ8nZCn3Q3QHgFufNkOlMU6mQJcfQUC3E5Ydgz7/Oc/n3hTu7aYaPsQ4DYl4b0zndNc+DqR9KOuvfRnp+fN9mvG76e9e0Gn/DuVp4k8vrgRAuiPEok/2L/cBjO9lnmyMJQCXIMNSwN1g16bcJTqBkWAFwwSvY4X9Eepd+xHgDfRa/72d2d1+QGNvHIDI8ZBfDuef4rXLXbbbbekIEzU+xNQv7yOzfKMV754r10b9ZJOjk7t3Wt7NdPr9f1+QU6tvfbaabvTYUFZxFZQUFAwDqxKt3UoS7y5aI4wIUBMScSnpAUFU4UiwAsKCkYanSy8iYLF7W9RFrVxb4e1ncO39MKwgCIRoWDmogjwgoKCoUYseiOoJ1tYByIvwd+iTO9Z6OjPb+0+XbPATigomEoUAT4A5NpuN6GgYE5GuzExXmii+bxXod58Pw/QTM+1NSA+M1xxxRWr973vfekXpO6Zgwdz4xbZDQOiHoF2dRwLnofion65UhL3A83rsdDMvxl6xUTfn0koArygoGCoEYKCJd6NwBgEIs/Iz+ddBLTvtX3K9pnPfKY6++yzZy+uE48wsQh3qso4mfA7UWFQC+sKJgdFgBcUFAw1wtKayq9TIk+BQPYZG3Cf+5/7qaeeWt11111pZbKfwSgbYS5MVRnHQ17+XkFZ+eIXv5j+j18w3JgWAR6abYSCgoKCYQXh7PejhLiNXCxkY5lanW6nNnPjtk9+8MEH038RRh28CO95z3vSN+kxRRBox7NzXt58VjC5mNLvwJtZxbVB4C9ASyyxRNoVykAZT3McdSIZ1vJHmze1d65Du0P5DnynnXZK38SO1z+jhlH/DpwLV39YHR07ebEU8/89e44Zh5U4SojNneI78P322+9F34HH/u6DgvbKx6i04zro3rW2dq18l19+eXXBBRdUb3jDG6pFF120Wm+99dLGLJ4R+oCvSUs9YtMne6Dbd/3YY49N+/FDnjf0Otb0vXyCDrSRjUiUN75Tz+vjXJk8F9e7pgeOOOKI6rHHHksKC1oyH26r19haNE8vh2f6yzoBzxdffPF0Xx7Rlt6JdEE7RP1BW8nL0XuRZ6wzUC+BkqEc2tkz6RgH0nKtzM0x3SxvO8grID356yd9iwal775tfb/1rW+l7/ijLaKeoGzSUj6hWZZoizj2imkR4M3jkUcembYp1FkaARGNV5kpLPKkYFjL32zzuP7tb39bLbTQQmlwbLfddrP3oZ4pGHUBbtxgVhiEsXTPPfdUp512WuqjYNzG1CjWDdRrOgV4O1qPe+IpF7C+X3jhheqss85KwfarH/3oR9Mua4QRqx2fiwVv3tV3e++9d7LmpSmtZn7t8h8PjCAegwMOOCBtPvO2t70t5UXgyVcZrarXpsFrCSiQvzKdeeaZswV4/G0RH7D1rv546qmn0k9f2tGVdE0x6CfpHXTQQWntADqUf8Azu93ZAx5v0Ube1ZfyUF59q2ziCuoR7RTn0f9BC9KQl2O7tuvUntIVApQAfaceSy+9dLXhhhumHfoOO+yw1A7K8tOf/rRabLHFklJCuCuP/MG5NlU/cXNajXyiLjk6lROmVYCDcxXVYRCVLpgetOsjMDgQYSxq6Ya4RgWjLsD1FcbgE6cLL7yweu6555Jlct999yVmEt8nYy4YaM5ERwHB9NSz3U5skyHAu4VxQLD51Ew5WWWEnbFyxx13VA888EAS2r/4xS9SWGCBBVL7o7OwOG+++ebqm9/8ZhKq0uiHkefQJqecckpy7S+33HLVsssum/b5f/7556srr7yyuu6665JwvOaaa1IZzj///CSICFGC/2Mf+9iLBPiPfvSjJLQoBLYSvfXWW9MCN3V45plnqsMPP3xWzn+B/P14huDTL+LZBIcnIgSZOCeffHJ1yCGHVJtuumnyVlx22WWpPN/5zndSna+66qr0W9etttqqOv7441P+H/7wh6svfOEL1ZJLLpnKsP766ydvBw8uhemcc85JCgqFwVoFUwHN7/M7taf+z2nAObnkJyb611QJ7wLFwl/stJs/1z355JMpnvEX3gFKjq1XV1111VR/99FHIPJx7Kvf6xenDDVxplAL6xeFuC8UTC/0R02krXqAzQ45am18xvVTrT23tt5661bNcGbdGS1EH9VCpFUP+lZtdeMKrS9+8Yuz+7NmHCnOKPadOoCyb7PNNq37778/XYN6xfNBIXhRtyFQW76pPII2hz/+8Y+pfO7VQqx14403ti644ILWxRdf3KqtuFZtqbY22WSTVi0EUnzxxkq/W0jroYceatUCo3XLLbekMriuBXmrVjZad955Z6KRG264IcWvhW3r+uuvT+fu/fnPf26dcMIJrVogpvxrxba15557zq6X+Motn4suuijdy0MtyFq1ItCqhXeiw1pgzW4H/AO9On/kkUdatcBu1YI7pVUr0in+e9/73lSG4447LqXx3e9+t/W9730vlX2nnXZq1cp2Kuu3v/3tVi0wU7seeOCBrZVXXjmNYeWshWarVpj6ak9xlC9C9M3BBx/cqpWedF4rx63TTz+99Za3vCWNO2VTd/F///vft55++unWbbfd1jr33HNbRx11VOuDH/xgq1Z+Un+IE4gyuRfnEbrB4NTWLkCjyEPcy1GXadbZ2BCnhMkJ0Tc0yQj581x7LBgesK7s2U3LrxlkuucPV1yJ+pOVqv8g+rKgPWIMdBNAW9YMN01XhAsXaqacLDRwn/t5tdVWS9+Rswyt/dl+++2r+eabL6UlDWm1y6MXoAHWaC28ksWoXCx/Fi3rvxZIyRJGJ/JkoW+wwQbJOl9llVWSFazc3mdxs55Z48qmTsrOPf6Nb3yj7b7g888/f1UL1Nm8ohZes+nPPWmwzHkclIW1rpxc0CxyngvPlUt53/rWt1bveMc7UhxrDfyPoVY00lQBrxkL21/jfBWg7Vnw9ix3X/vJd7zQDnn7KwvwpPAqaDOudN6A22+/vbr00kuTtS1vcbW3MtbCPVntvlQ46aST0nSGdRJ+XlMroSlN+ZtG8J681DHy7QZTKsALCgoGD648zMoiQ65GzNWc3Jve9KaicI0QemHcnVBbsEkQc4kTEoQ1Ycn9bI0EQeEZBY8r3QItG9XUVu3s92PKxboK0wRoCa0RmgQ6V/u2226b4ucwZ26tTG31pymEY445JpWFgFM/LnRlMu0gPWXw3DPudsJPHOkoozjiy9//+v2Tm4CmSOy4447pPcoAxcjvPmvLPrndKTKUhYki75Nm/ygXBSNAuDehDBSYtdZaK00JcLfX1nyaQwdjl3IAvZZ3WgV4szEKhgP6JQ8Fww3MOTR4+3WbIzZHiEljCKPej5hkHON82BBt3E1owr1B1ot1LT0C2Bw22rjtttvSfPihhx6avAC8AQSceflLLrkkffe98847V0cddVRKg9AkSG1YwzpnTUrP3C9L3loElq41F836EfreZ4kvssgiSXgFCDg/fQHz54S3RWzo1Dvm1wnnUB485wlQH8IcCD/wnDLy+9//Pgl+8+DWElAclN07g1Rgo4/yumpb40zZWef5swieU0gE58svv3xad8CDYJGjNTis9n6UjWKBFxSMODAJwJAxFAGjZNUUjA6iHycKgsJiU0cLG1nQXOLogpAmeAmb3XffPS348sWChXQEK4uaIPFp1MMPP5zcuyxo1vsyyyyTBCbhzWoneKTXBIUS7RG+hCy6jPuEYDyLBbHc31dccUXyIHH1c78r67XXXpuEs7yUE01//etfT0J6wQUXTIvfbrzxxmTJ8xiwyH3mxfomHAn+QbRpnka79CgJ8qNE8Bo0ER4E5fe+ugELXFtaQLvDDjukT9L0WS8Yiv+BFwwXmiQxKMYyrJgJq9BzNPsrno9qPxIo3K8Y4FR8RtYPJsJG/Q+c8CLYCB1CL0ev/cYCJ1SsliaEzS2bs0Xn5l5Z4ATNs88+m6ZZuKUJSALVXhzuP/300yktVjThTUBCzI1bac1qlG7M8zcR5c7Lr51CsP/6179OgnjPPfdMq8nnnXfeJMD1t/yUyZHlLbDU9bPyme/W7z7RU9doM/WSn3iO4bYfD52eKy8hrJw+yaMo5Gi+3+14DPA2EN5W1Tuq69Zbb536SfnlHWkoizpqI/1VBHjBX6ETAc40FAE+3CgCvPd+02YEA+YvuMb8CVv3WXqsW3PHyq5ttWHkLS7EdU5DBEhM2yjzWOWL+83nkZe6Kg+r3oK1sF7F9zz6lUIS98KaJdjRRD7P7eiZeJ45Qqe+Gav8gaA/Atz8u0VoOZrvN/PrlD5ob3VSV5vCPP744ylPP8+JKQZtTbhTfChaylJc6AV/BQSXh4LRxqj3I4YPGGMnZjxdyMdLp9CEe1HHQSDSYqERYgKBHQLROcFs8RQhwYIlCB3N0YLnQrR5lN2596XNAhc/nkXohBC4Fm7JP5Rm95UjyievsH4FZXdNyHlHPGl4L8qdxw10U6ZuELTXqb6dnjdBkVFewtncvYWovgi4+OKL0yY/9qT3Hb51LfpWPwnaogjwgoKCghkE89sEY8w5s7iBcAyBx/p2n/AgEJ07eo/Q8a7g3P2Ac++EMAsLvRcQPNLg3ieIbDpj5bg0lT2gLISxYwhkAizm1Alt74ew9ywX3INCLoS7Eci9Qh0h+kK7O4bCZWrBVINP/HwqauEb9zoFpgjwgoIRB6aSh4LhRrO/hBA87Z71ilgcRrBh8rHCWeCydt93y6xYApCAjCOI51xw7hnhGNZfLjBDkOfoVG6uYEKLe9gqeYvWbNWsPIJ05Rt5RpCm95zLl4BTFteOyjYWokztwnRCPaIc6qYe0R+gjuK4h0aiXcRPAj7FKigoKCiYI0EwRGgnkN3LwyAgL0LKCnICneAKQeZZCCwh7udhLAy6nNOBdvXNQ44iwAsKCgoKpgUhpMfDeAJsTkcR4AUFBQUFBSOI8hlZwRyPUf6MLB++uXVioVDMYZoryzFqVkysRFYXn5Htv//+Q/cZ2UTg22KLlsxPx8KxYUCUY6zyBO3lz92LEBh0ffK0oV05oN980Zpv34F7H935W9ott9yS/pNuZ7pBolmfXlAEeMEcj1H/DjxA0PlBxhNPPJG2m7QlpfoMirFNF2a6APfbz9jIBCw8GwZEm45FL+0Ep3uxyCwwaHpriqx25YB+8o0655+loTvwP3BbFdsBbpBo1qcXFAFeMMdjJghwWzl+9rOfrb761a8my9vKY38+8q/k5hAfNEOdbMx0AW67U5t3xGrvEBjTjaCTsdpWWSF/HsI7p7lREuCRVnit0F4oVDbc8fmWP4wNEs369ILRpfqCgoIEwtsmEP4k5WhFr+9pbZvp29KC4QKGnQc/9SBsfKNNAOq/YQiUJoFC2C60e+66XVqjEihRFJK8TtzpoUTGJ3rDgiLACwpGHJgKJsM6JbBtSWnXJv8rxpBCUASa1wVTg7H6gbdEv/H+EBLD1jdRzgjdgEISYarQLF8v5c2hDwLOWeAEOW9P7Ak/SORt1WsoArygYMTBarM7lT3Cb7jhhuqiiy6q7rvvvnQvFuMUDA9CsPQrYAoKAkWAFxSMOLj8CAICe+WVV077JrPouARZDgXDiXYW1UzBVCooM7UNu0ER4AUFMwCEuE+RBOdpn+T62PyErKCgYOagCPCCghkC892s7nwOjwXetExGyVLJLbl8hXMeRgXR7qPU/tBruZt9Muj+6lSeTs9nEooALyiYIcCsWN0znWkVFBT8BUWAFxSMOGa6wA5LKpSTZhhVRPnzes0UDNLi7oRou5nWht2gCPCCgoKCgklDU5BPlWCfE1AEeEHBDMcoWyiF0Q8/bHIC1ij4VvqRRx6pTj755OrKK69MnzGGwC6Ce/AoArygoKCgoG9YNEl42+TkqaeeqpZddtlq9913rzbZZJPq2GOPTc8ghHfzWNA/igAvKCgYapgjhnZehPKd+/BAv/zmN79Jf1XzMxCC/bLLLpv1tGAyUAR4QUHBSKJYcMMDwttWsBQqe/Pbh4DlPf/888+KUTAZKH8jK5jj4acf++yzT/qTFybkRyAzGcM+5P2Na+65566ef/759F27zWjMrRIMful4xBFHVPPNN1/6V3MgrPRRQLP9d9555+rwww9PlitB6HnuZRhm5HWJc3U5/vjjq6WXXro6//zz017v0KxTXA97XWMK4BOf+ET6Re9mm22WrocBRYAXzPH43e9+V51wwgnVQgstVD355JMj+0vRbjHsQ54wZsn98Y9/rF7+8penRVKY/Ktf/erq8ccfrz7+8Y9Xc801V3LRiqs+RYBPD6IucYzyc6E7Ur7GqlNcD3tdiwAvKBhyWC2bW3QF0wtWePyL2d/VYke5WDAVbCufHx8VNFnuTBLgEH3Ca6LvQiFu1imuh72uwyzAyxx4wRyHJgP953/+5yQY7CMen8QUTB/0A6ZOeOsb/ZVvERsW+ihZ3XMaCG+CL9znBZODMgIK5jiERk1QEA4sH64+e4mXn39ML/SHfgD9xCviL2vuRwgQ8hEKpgfR9nlf6DfjiNKVPws0rwv6RxHgBXMcWG6ENwvPXF1BQUHBKKII8IKCgqFDWGnFUisoGBtFgBfMcWB1s75Z4cVlXlBQMKooArxgjkMshiLEc0uvWHzTj3Z9kPdN81nB9KPZP6aoKMmOcR7P8vMIBf2jCPCCgoKCgoHCAjafkP37v/97OneM84LBoQjwgoKCoUOx0EYX8ZWHLwbyBaMxbVUwOBQBXlBQUFAwMHzjG9+o1llnneqAAw5ILnOfBfouXIhPBAsGgyLACwoKCgomDC7ye++9t/rwhz9c3XDDDdUZZ5xRbbHFFrMt8vLnuMGjCPCCgoKCgr5BcAOXuX+CA2FtV0P/GSDAy3TI5KAI8IKCgoKCvhE75BHar3jFK5Kgtpe9+W57h8dceBHgg0cR4AUFBQUFfYPgZoX7PHPxxRev7r777uqoo46qTj/99Orzn/98el6E9+SgCPCCgoKCgr4R/xEIS3v55Zev9thjjzQX7l5xn08eigAvKCgoKJg0FOE9eSgCvKCgoKCgYARRBHhBQUFBQcEIogjwgoKCgoK+EXPc3YaCwaEI8IKCgoKCghFEEeAFBQUFBQUjiCLACwoKCgoKRhBFgBcUFBRMI+aaa670m00/+/DdtK1HxwviTCS0S7OEsYNd5eJHLMO2n3sR4AUFBQXTDIu74h/aBMZ4oZ2Q6SW0S7OEsQOhHb9CHS4BXlX/P3af9mYJ/QfsAAAAAElFTkSuQmCC;" parent="1" vertex="1">
                    <mxGeometry x="177" y="120" width="496" height="320" as="geometry"/>
                </mxCell>
            </root>
        </mxGraphModel>
    </diagram>
</mxfile>